<svg width="293" height="60" viewBox="0 0 293 60" fill="none" xmlns="http://www.w3.org/2000/svg">
<path d="M11.9283 1.39239C12.1638 0.568206 12.9172 0 13.7743 0H37.5146C38.7902 0 39.7112 1.22105 39.3607 2.44761L32.7542 25.5633C32.5187 26.3875 31.7653 26.9557 30.9082 26.9557H7.16792C5.89225 26.9557 4.97129 25.7346 5.32184 24.5081L11.9283 1.39239Z" fill="white"/>
<path d="M21.9433 32.199C22.1788 31.3748 22.9322 30.8066 23.7894 30.8066H47.5296C48.8053 30.8066 49.7262 32.0277 49.3757 33.2542L42.7693 56.3699C42.5337 57.1941 41.7804 57.7623 40.9232 57.7623H17.1829C15.9073 57.7623 14.9863 56.5413 15.3369 55.3147L21.9433 32.199Z" fill="white"/>
<path d="M39.2265 13.7141C39.4623 12.8902 40.2155 12.3223 41.0724 12.3223H52.1512C53.4271 12.3223 54.3481 13.5437 53.9971 14.7704L50.9089 25.5635C50.6732 26.3874 49.92 26.9553 49.063 26.9553H37.9843C36.7084 26.9553 35.7874 25.7339 36.1383 24.5072L39.2265 13.7141Z" fill="#FB923C"/>
<path d="M3.78865 32.1985C4.0244 31.3746 4.77761 30.8066 5.63458 30.8066H16.7133C17.9892 30.8066 18.9102 32.0281 18.5592 33.2548L15.4711 44.0479C15.2353 44.8718 14.4821 45.4397 13.6251 45.4397H2.54641C1.2705 45.4397 0.349496 44.2182 0.700482 42.9916L3.78865 32.1985Z" fill="#FB923C"/>
<path d="M96.9556 47.5576L94.2811 38.7573H80.8331L78.1586 47.5576H69.7314L82.7506 10.4344H92.3131L105.383 47.5576H96.9556ZM92.4141 32.1823L89.7396 23.5843C89.5714 23.0111 89.3443 22.2777 89.0583 21.3842C88.7892 20.4738 88.5117 19.555 88.2257 18.6278C87.9566 17.6837 87.7379 16.866 87.5697 16.1748C87.4015 16.866 87.166 17.7258 86.8633 18.7542C86.5773 19.7658 86.2998 20.7267 86.0306 21.6371C85.7615 22.5475 85.5681 23.1965 85.4503 23.5843L82.8011 32.1823H92.4141Z" fill="white"/>
<path d="M117.14 47.5576H109.445V8.20898H117.14V47.5576Z" fill="white"/>
<path d="M137.123 41.9183C137.964 41.9183 138.78 41.834 139.571 41.6655C140.378 41.4969 141.177 41.2861 141.968 41.0332V46.7737C141.143 47.1446 140.117 47.4481 138.889 47.6841C137.678 47.937 136.35 48.0634 134.903 48.0634C133.221 48.0634 131.707 47.7937 130.361 47.2542C129.033 46.6978 127.981 45.7453 127.208 44.3966C126.451 43.031 126.072 41.1344 126.072 38.7067V25.0763H122.388V21.8141L126.627 19.2347L128.848 13.2667H133.768V19.2853H141.665V25.0763H133.768V38.7067C133.768 39.7857 134.07 40.5949 134.676 41.1344C135.298 41.657 136.114 41.9183 137.123 41.9183Z" fill="white"/>
<path d="M155.39 8.20898V16.2254C155.39 17.6247 155.34 18.9565 155.239 20.2209C155.155 21.4854 155.088 22.3789 155.037 22.9015H155.441C156.046 21.9237 156.761 21.1313 157.586 20.5244C158.427 19.9175 159.352 19.4707 160.361 19.1841C161.37 18.8975 162.455 18.7542 163.616 18.7542C165.651 18.7542 167.426 19.1167 168.939 19.8416C170.453 20.5497 171.631 21.6708 172.472 23.205C173.313 24.7223 173.733 26.6948 173.733 29.1224V47.5576H166.038V31.0444C166.038 29.0213 165.668 27.4956 164.928 26.4672C164.188 25.4388 163.044 24.9246 161.496 24.9246C159.949 24.9246 158.729 25.287 157.838 26.012C156.946 26.72 156.316 27.7737 155.946 29.173C155.576 30.5554 155.39 32.2498 155.39 34.256V47.5576H147.695V8.20898H155.39Z" fill="white"/>
<path d="M193.287 18.7542C195.895 18.7542 198.14 19.26 200.024 20.2715C201.908 21.2662 203.363 22.7161 204.389 24.6211C205.415 26.5262 205.928 28.8527 205.928 31.6007V35.3434H187.737C187.821 37.5182 188.468 39.2293 189.679 40.4769C190.907 41.7076 192.606 42.3229 194.776 42.3229C196.576 42.3229 198.224 42.1375 199.721 41.7666C201.218 41.3957 202.757 40.8394 204.339 40.0976V46.0656C202.942 46.7568 201.479 47.2626 199.948 47.5829C198.434 47.9032 196.593 48.0634 194.423 48.0634C191.597 48.0634 189.091 47.5408 186.904 46.4955C184.734 45.4503 183.027 43.8571 181.782 41.716C180.554 39.5749 179.94 36.8775 179.94 33.6238C179.94 30.3194 180.495 27.5714 181.605 25.3798C182.732 23.1712 184.297 21.5191 186.298 20.4233C188.3 19.3106 190.63 18.7542 193.287 18.7542ZM193.338 24.2418C191.841 24.2418 190.596 24.7223 189.604 25.6832C188.628 26.6442 188.065 28.1531 187.913 30.2098H198.712C198.695 29.0634 198.485 28.0435 198.081 27.1499C197.694 26.2564 197.106 25.5484 196.315 25.0257C195.541 24.5031 194.549 24.2418 193.338 24.2418Z" fill="white"/>
<path d="M237.82 33.3709C237.82 35.7311 237.5 37.8216 236.861 39.6424C236.239 41.4631 235.322 43.0057 234.111 44.2701C232.917 45.5177 231.47 46.4618 229.771 47.1024C228.089 47.7431 226.188 48.0634 224.069 48.0634C222.084 48.0634 220.259 47.7431 218.594 47.1024C216.946 46.4618 215.507 45.5177 214.279 44.2701C213.068 43.0057 212.126 41.4631 211.454 39.6424C210.798 37.8216 210.47 35.7311 210.47 33.3709C210.47 30.2351 211.025 27.5798 212.135 25.4051C213.245 23.2303 214.826 21.5781 216.878 20.4485C218.93 19.319 221.378 18.7542 224.22 18.7542C226.861 18.7542 229.199 19.319 231.235 20.4485C233.287 21.5781 234.893 23.2303 236.054 25.4051C237.231 27.5798 237.82 30.2351 237.82 33.3709ZM218.316 33.3709C218.316 35.2254 218.518 36.7848 218.922 38.0492C219.326 39.3136 219.956 40.2662 220.814 40.9068C221.672 41.5474 222.791 41.8678 224.17 41.8678C225.533 41.8678 226.634 41.5474 227.475 40.9068C228.333 40.2662 228.955 39.3136 229.342 38.0492C229.746 36.7848 229.948 35.2254 229.948 33.3709C229.948 31.4995 229.746 29.9485 229.342 28.7178C228.955 27.4703 228.333 26.5346 227.475 25.9108C226.617 25.287 225.499 24.9752 224.12 24.9752C222.084 24.9752 220.604 25.6748 219.679 27.0741C218.771 28.4734 218.316 30.5723 218.316 33.3709Z" fill="white"/>
<path d="M259.922 18.7542C260.309 18.7542 260.755 18.7795 261.26 18.8301C261.781 18.8638 262.201 18.9144 262.521 18.9818L261.941 26.2143C261.688 26.13 261.327 26.071 260.856 26.0373C260.402 25.9867 260.006 25.9614 259.67 25.9614C258.678 25.9614 257.71 26.0878 256.768 26.3407C255.843 26.5936 255.011 27.0066 254.271 27.5798C253.53 28.1362 252.942 28.878 252.504 29.8052C252.084 30.7156 251.874 31.8367 251.874 33.1686V47.5576H244.178V19.2853H250.007L251.142 24.0395H251.52C252.075 23.0785 252.765 22.2019 253.589 21.4095C254.43 20.6003 255.381 19.9596 256.44 19.4876C257.517 18.9987 258.678 18.7542 259.922 18.7542Z" fill="white"/>
<path d="M263.606 19.2853H272.033L277.357 35.1916C277.525 35.6974 277.668 36.2116 277.786 36.7342C277.904 37.2569 278.004 37.7963 278.089 38.3527C278.173 38.909 278.24 39.4907 278.29 40.0976H278.442C278.543 39.1872 278.677 38.3358 278.845 37.5435C279.031 36.7511 279.258 35.9671 279.527 35.1916L284.75 19.2853H293L281.066 51.1739C280.343 53.1295 279.401 54.7564 278.24 56.0545C277.079 57.3695 275.742 58.3558 274.228 59.0133C272.731 59.6707 271.083 59.9995 269.283 59.9995C268.408 59.9995 267.651 59.9489 267.012 59.8478C266.373 59.7635 265.826 59.6707 265.372 59.5696V53.4498C265.725 53.5341 266.171 53.61 266.709 53.6774C267.248 53.7448 267.811 53.7786 268.4 53.7786C269.476 53.7786 270.402 53.551 271.175 53.0958C271.949 52.6406 272.597 52.0252 273.118 51.2497C273.639 50.4911 274.052 49.6566 274.354 48.7462L274.809 47.3553L263.606 19.2853Z" fill="white"/>
</svg>
