<svg width="279" height="56" viewBox="0 0 279 56" fill="none" xmlns="http://www.w3.org/2000/svg">
<path d="M11.5293 1.45068C11.7746 0.592018 12.5594 0 13.4524 0H36.1656C37.4943 0 38.4537 1.27171 38.0887 2.54931L31.7665 24.6827C31.5212 25.5413 30.7364 26.1333 29.8434 26.1333H7.13016C5.80146 26.1333 4.84214 24.8616 5.20707 23.584L11.5293 1.45068Z" fill="white"/>
<path d="M21.2334 31.3174C21.4787 30.4587 22.2635 29.8667 23.1565 29.8667H45.8697C47.1984 29.8667 48.1578 31.1384 47.7928 32.416L41.4706 54.5494C41.2253 55.408 40.4405 56 39.5475 56H16.8343C15.5056 56 14.5462 54.7283 14.9112 53.4507L21.2334 31.3174Z" fill="white"/>
<path d="M37.9803 13.3964C38.2257 12.538 39.0104 11.9463 39.9032 11.9463H50.3479C51.6768 11.9463 52.6362 13.2184 52.2708 14.4962L49.3577 24.6829C49.1123 25.5412 48.3276 26.133 47.4348 26.133H36.9901C35.6612 26.133 34.7018 24.8608 35.0672 23.5831L37.9803 13.3964Z" fill="#FB923C"/>
<path d="M3.64227 31.3168C3.88773 30.4584 4.6724 29.8667 5.56518 29.8667H16.0099C17.3388 29.8667 18.2982 31.1389 17.9328 32.4166L15.0197 42.6033C14.7742 43.4616 13.9896 44.0534 13.0968 44.0534H2.65211C1.32316 44.0534 0.363799 42.7812 0.729192 41.5035L3.64227 31.3168Z" fill="#FB923C"/>
<path d="M68.1217 49.5705C68.1217 50.6103 67.8331 51.4059 67.2559 51.9573C66.6787 52.5059 65.8473 52.7802 64.7618 52.7802H63V46.4814H64.947C65.9492 46.4814 66.7289 46.7514 67.286 47.2914C67.8431 47.8314 68.1217 48.5911 68.1217 49.5705ZM67.0362 49.605C67.0362 48.0971 66.3312 47.3431 64.9212 47.3431H64.0295V51.9143H64.7618C66.2781 51.9143 67.0362 51.1445 67.0362 49.605Z" fill="white"/>
<path d="M74.2424 52.7802V46.4814H75.2719V52.7802H74.2424Z" fill="white"/>
<path d="M84.2787 49.3637H86.5962V52.5261C86.2171 52.6496 85.8524 52.7372 85.502 52.7889C85.1546 52.8406 84.7784 52.8664 84.3734 52.8664C83.42 52.8664 82.6849 52.5849 82.168 52.022C81.6511 51.4561 81.3926 50.6591 81.3926 49.6308C81.3926 48.6169 81.6841 47.8242 82.267 47.2526C82.85 46.6782 83.6527 46.3909 84.675 46.3909C85.3326 46.3909 85.9558 46.5173 86.5445 46.7701L86.1826 47.6274C85.6715 47.3919 85.1603 47.2742 84.6491 47.2742C83.9772 47.2742 83.4459 47.4853 83.0553 47.9075C82.6648 48.3297 82.4695 48.907 82.4695 49.6394C82.4695 50.4092 82.6447 50.9951 82.995 51.3973C83.3482 51.7965 83.8551 51.9961 84.5156 51.9961C84.8487 51.9961 85.2048 51.9545 85.5839 51.8712V50.2469H84.2787V49.3637Z" fill="white"/>
<path d="M92.8762 52.7802V46.4814H93.9057V52.7802H92.8762Z" fill="white"/>
<path d="M102.512 52.7802H101.482V47.3646H99.6302V46.4814H104.364V47.3646H102.512V52.7802Z" fill="white"/>
<path d="M114.004 52.7802L113.375 51.031H110.967L110.351 52.7802H109.266L111.622 46.4556H112.742L115.098 52.7802H114.004ZM113.104 50.1435L112.514 48.4288C112.471 48.3139 112.41 48.133 112.333 47.8859C112.258 47.6389 112.206 47.458 112.178 47.3431C112.1 47.6964 111.987 48.0827 111.837 48.502L111.269 50.1435H113.104Z" fill="white"/>
<path d="M120.693 52.7802V46.4814H121.723V51.897H124.389V52.7802H120.693Z" fill="white"/>
<path d="M142.885 49.6222C142.885 50.6476 142.628 51.4447 142.114 52.0134C141.603 52.5821 140.878 52.8664 139.939 52.8664C138.988 52.8664 138.258 52.5849 137.746 52.022C137.238 51.4561 136.984 50.6533 136.984 49.6136C136.984 48.5738 137.24 47.7754 137.751 47.2181C138.265 46.6609 138.997 46.3823 139.948 46.3823C140.884 46.3823 141.607 46.6652 142.119 47.2311C142.63 47.7969 142.885 48.594 142.885 49.6222ZM138.078 49.6222C138.078 50.3977 138.235 50.9865 138.548 51.3886C138.861 51.7879 139.324 51.9875 139.939 51.9875C140.551 51.9875 141.012 51.7893 141.322 51.393C141.635 50.9966 141.791 50.4063 141.791 49.6222C141.791 48.8496 141.636 48.2636 141.326 47.8644C141.019 47.4652 140.559 47.2655 139.948 47.2655C139.33 47.2655 138.864 47.4652 138.548 47.8644C138.235 48.2636 138.078 48.8496 138.078 49.6222Z" fill="white"/>
<path d="M154.248 52.7802H152.986L149.889 47.761H149.855L149.876 48.041C149.916 48.5753 149.936 49.0636 149.936 49.5059V52.7802H149.002V46.4814H150.251L153.339 51.4748H153.365C153.36 51.4087 153.348 51.1689 153.331 50.7553C153.314 50.3388 153.305 50.0143 153.305 49.7816V46.4814H154.248V52.7802Z" fill="white"/>
<path d="M160.675 46.4814H162.544C163.412 46.4814 164.038 46.6078 164.422 46.8606C164.81 47.1133 165.004 47.5126 165.004 48.0583C165.004 48.4259 164.909 48.7318 164.72 48.976C164.53 49.2201 164.257 49.3738 163.901 49.437V49.48C164.344 49.5633 164.668 49.7285 164.875 49.9755C165.084 50.2196 165.189 50.5514 165.189 50.9707C165.189 51.5366 164.991 51.9803 164.595 52.302C164.201 52.6208 163.653 52.7802 162.949 52.7802H160.675V46.4814ZM161.704 49.0837H162.695C163.126 49.0837 163.44 49.0162 163.639 48.8812C163.837 48.7433 163.936 48.5107 163.936 48.1832C163.936 47.8874 163.828 47.6734 163.613 47.5413C163.4 47.4092 163.061 47.3431 162.596 47.3431H161.704V49.0837ZM161.704 49.9195V51.9143H162.799C163.229 51.9143 163.554 51.8324 163.772 51.6687C163.993 51.5021 164.104 51.2407 164.104 50.8846C164.104 50.5571 163.992 50.3144 163.768 50.1565C163.544 49.9985 163.203 49.9195 162.747 49.9195H161.704Z" fill="white"/>
<path d="M176.854 49.6222C176.854 50.6476 176.597 51.4447 176.083 52.0134C175.572 52.5821 174.846 52.8664 173.907 52.8664C172.957 52.8664 172.226 52.5849 171.715 52.022C171.207 51.4561 170.952 50.6533 170.952 49.6136C170.952 48.5738 171.208 47.7754 171.719 47.2181C172.233 46.6609 172.965 46.3823 173.916 46.3823C174.852 46.3823 175.576 46.6652 176.087 47.2311C176.598 47.7969 176.854 48.594 176.854 49.6222ZM172.047 49.6222C172.047 50.3977 172.203 50.9865 172.516 51.3886C172.829 51.7879 173.293 51.9875 173.907 51.9875C174.519 51.9875 174.98 51.7893 175.29 51.393C175.603 50.9966 175.76 50.4063 175.76 49.6222C175.76 48.8496 175.605 48.2636 175.294 47.8644C174.987 47.4652 174.528 47.2655 173.916 47.2655C173.299 47.2655 172.832 47.4652 172.516 47.8644C172.203 48.2636 172.047 48.8496 172.047 49.6222Z" fill="white"/>
<path d="M186.877 52.7802L186.248 51.031H183.84L183.224 52.7802H182.139L184.495 46.4556H185.615L187.971 52.7802H186.877ZM185.977 50.1435L185.387 48.4288C185.344 48.3139 185.283 48.133 185.206 47.8859C185.131 47.6389 185.079 47.458 185.051 47.3431C184.973 47.6964 184.86 48.0827 184.71 48.502L184.142 50.1435H185.977Z" fill="white"/>
<path d="M194.596 49.4111H195.311C195.791 49.4111 196.138 49.3221 196.353 49.144C196.569 48.9659 196.677 48.7017 196.677 48.3512C196.677 47.9951 196.56 47.7395 196.328 47.5844C196.095 47.4293 195.745 47.3517 195.277 47.3517H194.596V49.4111ZM194.596 50.2642V52.7802H193.566V46.4814H195.345C196.158 46.4814 196.76 46.6336 197.15 46.9381C197.541 47.2426 197.736 47.7021 197.736 48.3168C197.736 49.1009 197.328 49.6596 196.513 49.9927L198.292 52.7802H197.12L195.613 50.2642H194.596Z" fill="white"/>
<path d="M209.095 49.5705C209.095 50.6103 208.806 51.4059 208.229 51.9573C207.652 52.5059 206.82 52.7802 205.735 52.7802H203.973V46.4814H205.92C206.922 46.4814 207.702 46.7514 208.259 47.2914C208.816 47.8314 209.095 48.5911 209.095 49.5705ZM208.009 49.605C208.009 48.0971 207.304 47.3431 205.894 47.3431H205.003V51.9143H205.735C207.251 51.9143 208.009 51.1445 208.009 49.605Z" fill="white"/>
<path d="M215.216 52.7802V46.4814H216.245V52.7802H215.216Z" fill="white"/>
<path d="M227.923 52.7802H226.66L223.563 47.761H223.529L223.55 48.041C223.591 48.5753 223.611 49.0636 223.611 49.5059V52.7802H222.676V46.4814H223.925L227.014 51.4748H227.04C227.034 51.4087 227.022 51.1689 227.005 50.7553C226.988 50.3388 226.979 50.0143 226.979 49.7816V46.4814H227.923V52.7802Z" fill="white"/>
<path d="M236.925 49.3637H239.242V52.5261C238.863 52.6496 238.499 52.7372 238.148 52.7889C237.801 52.8406 237.425 52.8664 237.02 52.8664C236.066 52.8664 235.331 52.5849 234.814 52.022C234.297 51.4561 234.039 50.6591 234.039 49.6308C234.039 48.6169 234.33 47.8242 234.913 47.2526C235.496 46.6782 236.299 46.3909 237.321 46.3909C237.979 46.3909 238.602 46.5173 239.191 46.7701L238.829 47.6274C238.318 47.3919 237.807 47.2742 237.295 47.2742C236.623 47.2742 236.092 47.4853 235.702 47.9075C235.311 48.3297 235.116 48.907 235.116 49.6394C235.116 50.4092 235.291 50.9951 235.641 51.3973C235.995 51.7965 236.501 51.9961 237.162 51.9961C237.495 51.9961 237.851 51.9545 238.23 51.8712V50.2469H236.925V49.3637Z" fill="white"/>
<path d="M89.3379 40.9883L86.7505 32.4922H73.7402L71.1528 40.9883H63L75.5953 5.14844H84.8465L97.4907 40.9883H89.3379ZM84.9442 26.1445L82.3568 17.8438C82.194 17.2904 81.9743 16.5824 81.6977 15.7197C81.4373 14.8408 81.1688 13.9538 80.8922 13.0586C80.6318 12.1471 80.4203 11.3577 80.2575 10.6904C80.0948 11.3577 79.867 12.1878 79.5741 13.1807C79.2974 14.1572 79.0289 15.085 78.7686 15.9639C78.5082 16.8428 78.3211 17.4694 78.2071 17.8438L75.6441 26.1445H84.9442Z" fill="white"/>
<path d="M108.866 40.9883H101.421V3H108.866V40.9883Z" fill="white"/>
<path d="M128.198 35.5439C129.012 35.5439 129.801 35.4626 130.566 35.2998C131.347 35.137 132.12 34.9336 132.885 34.6895V40.2314C132.087 40.5895 131.094 40.8825 129.907 41.1104C128.735 41.3545 127.449 41.4766 126.05 41.4766C124.423 41.4766 122.958 41.2161 121.656 40.6953C120.371 40.1582 119.353 39.2386 118.605 37.9365C117.873 36.6182 117.507 34.7871 117.507 32.4434V19.2842H113.943V16.1348L118.044 13.6445L120.192 7.88281H124.951V13.6934H132.592V19.2842H124.951V32.4434C124.951 33.485 125.244 34.2663 125.83 34.7871C126.432 35.2917 127.221 35.5439 128.198 35.5439Z" fill="white"/>
<path d="M145.87 3V10.7393C145.87 12.0902 145.822 13.376 145.724 14.5967C145.643 15.8174 145.577 16.68 145.529 17.1846H145.919C146.505 16.2406 147.197 15.4756 147.994 14.8896C148.808 14.3037 149.703 13.8724 150.679 13.5957C151.655 13.319 152.705 13.1807 153.828 13.1807C155.797 13.1807 157.514 13.5306 158.978 14.2305C160.443 14.9141 161.582 15.9964 162.396 17.4775C163.209 18.9424 163.616 20.8467 163.616 23.1904V40.9883H156.171V25.0459C156.171 23.0928 155.813 21.6198 155.097 20.627C154.381 19.6341 153.275 19.1377 151.777 19.1377C150.28 19.1377 149.101 19.4876 148.238 20.1875C147.376 20.8711 146.765 21.8883 146.407 23.2393C146.049 24.5739 145.87 26.2096 145.87 28.1465V40.9883H138.425V3H145.87Z" fill="white"/>
<path d="M182.534 13.1807C185.056 13.1807 187.228 13.6689 189.051 14.6455C190.873 15.6058 192.281 17.0055 193.274 18.8447C194.266 20.6839 194.763 22.93 194.763 25.583V29.1963H177.163C177.245 31.2959 177.871 32.9479 179.043 34.1523C180.231 35.3405 181.874 35.9346 183.974 35.9346C185.715 35.9346 187.31 35.7555 188.758 35.3975C190.206 35.0394 191.695 34.5023 193.225 33.7861V39.5479C191.874 40.2152 190.458 40.7035 188.978 41.0127C187.513 41.3219 185.731 41.4766 183.632 41.4766C180.898 41.4766 178.473 40.972 176.358 39.9629C174.259 38.9538 172.607 37.4157 171.403 35.3486C170.215 33.2816 169.621 30.6774 169.621 27.5361C169.621 24.346 170.158 21.693 171.232 19.5771C172.322 17.445 173.836 15.8499 175.772 14.792C177.709 13.7178 179.962 13.1807 182.534 13.1807ZM182.582 18.4785C181.134 18.4785 179.93 18.9424 178.97 19.8701C178.026 20.7979 177.481 22.2546 177.334 24.2402H187.782C187.765 23.1335 187.562 22.1488 187.171 21.2861C186.797 20.4235 186.227 19.7399 185.463 19.2354C184.714 18.7308 183.754 18.4785 182.582 18.4785Z" fill="white"/>
<path d="M225.616 27.292C225.616 29.5706 225.307 31.5889 224.689 33.3467C224.087 35.1045 223.2 36.5938 222.028 37.8145C220.873 39.0189 219.473 39.9303 217.83 40.5488C216.202 41.1673 214.364 41.4766 212.313 41.4766C210.393 41.4766 208.627 41.1673 207.016 40.5488C205.422 39.9303 204.03 39.0189 202.842 37.8145C201.671 36.5938 200.759 35.1045 200.108 33.3467C199.474 31.5889 199.156 29.5706 199.156 27.292C199.156 24.2646 199.693 21.7012 200.767 19.6016C201.841 17.502 203.371 15.9069 205.356 14.8164C207.342 13.7259 209.709 13.1807 212.46 13.1807C215.014 13.1807 217.276 13.7259 219.245 14.8164C221.231 15.9069 222.785 17.502 223.908 19.6016C225.047 21.7012 225.616 24.2646 225.616 27.292ZM206.748 27.292C206.748 29.0824 206.943 30.5879 207.334 31.8086C207.724 33.0293 208.334 33.9489 209.164 34.5674C209.994 35.1859 211.076 35.4951 212.411 35.4951C213.729 35.4951 214.795 35.1859 215.608 34.5674C216.438 33.9489 217.04 33.0293 217.415 31.8086C217.805 30.5879 218.001 29.0824 218.001 27.292C218.001 25.4854 217.805 23.988 217.415 22.7998C217.04 21.5954 216.438 20.6921 215.608 20.0898C214.779 19.4876 213.696 19.1865 212.362 19.1865C210.393 19.1865 208.961 19.862 208.066 21.2129C207.187 22.5638 206.748 24.5902 206.748 27.292Z" fill="white"/>
<path d="M246.999 13.1807C247.373 13.1807 247.805 13.2051 248.293 13.2539C248.797 13.2865 249.204 13.3353 249.513 13.4004L248.952 20.3828C248.708 20.3014 248.358 20.2445 247.902 20.2119C247.463 20.1631 247.08 20.1387 246.755 20.1387C245.795 20.1387 244.859 20.2607 243.948 20.5049C243.053 20.749 242.247 21.1478 241.531 21.7012C240.815 22.2383 240.246 22.9544 239.823 23.8496C239.416 24.7285 239.212 25.8109 239.212 27.0967V40.9883H231.768V13.6934H237.406L238.505 18.2832H238.871C239.408 17.3555 240.075 16.5091 240.872 15.7441C241.686 14.9629 242.605 14.3444 243.631 13.8887C244.672 13.4167 245.795 13.1807 246.999 13.1807Z" fill="white"/>
<path d="M250.563 13.6934H258.716L263.866 29.0498C264.029 29.5381 264.167 30.0345 264.281 30.5391C264.395 31.0436 264.493 31.5645 264.574 32.1016C264.655 32.6387 264.72 33.2002 264.769 33.7861H264.916C265.013 32.9072 265.144 32.0853 265.306 31.3203C265.485 30.5553 265.705 29.7985 265.965 29.0498L271.018 13.6934H279L267.454 44.4795C266.755 46.3675 265.843 47.9382 264.72 49.1914C263.598 50.4609 262.304 51.4131 260.839 52.0479C259.391 52.6826 257.796 53 256.055 53C255.209 53 254.477 52.9512 253.858 52.8535C253.24 52.7721 252.711 52.6826 252.272 52.585V46.6768C252.613 46.7581 253.045 46.8314 253.565 46.8965C254.086 46.9616 254.631 46.9941 255.201 46.9941C256.242 46.9941 257.137 46.7744 257.886 46.335C258.634 45.8955 259.261 45.3014 259.765 44.5527C260.27 43.8203 260.668 43.0146 260.961 42.1357L261.401 40.793L250.563 13.6934Z" fill="white"/>
</svg>
