<svg width="200" height="36" viewBox="0 0 200 36" fill="none" xmlns="http://www.w3.org/2000/svg">
<g clip-path="url(#clip0_238_818)">
<path d="M45.6157 35.0753C43.6376 34.9277 42.6633 34.0124 42.6633 32.1228V19.9291C42.5156 17.4786 41.187 16.2681 38.5298 16.2681C35.8726 16.2681 34.544 17.4786 34.4849 19.9291V35.0753H28.4324V21.1397C28.4324 14.3785 31.8277 11.0127 38.6184 11.0127C45.409 11.0127 48.6863 14.3785 48.6568 21.1397V35.0753H45.6157Z" fill="#C4C4C4"/>
<path d="M57.3074 14.5557C58.8427 12.1051 61.057 10.8946 64.039 10.8946C70.3573 11.1308 73.4869 15.2347 73.4869 23.295C73.4869 31.178 69.8258 35.1639 62.4742 35.3115C55.093 35.3705 51.3729 31.8276 51.3729 24.6826V0H54.3844C56.3626 0 57.3369 1.03336 57.3369 3.01151V14.5557H57.3074ZM57.3074 23.0292C57.2483 27.8122 58.8722 30.2332 62.2675 30.2332C65.6629 30.2332 67.3753 27.8122 67.3753 23.0292C67.2277 18.4529 65.5743 16.209 62.3561 16.209C59.1379 16.209 57.4845 18.4529 57.3074 23.0292Z" fill="#C4C4C4"/>
<path d="M97.5496 23.2063C97.5496 31.3551 93.918 35.4886 86.7436 35.4886C79.5691 35.4886 75.9966 31.3551 75.9966 23.2063C75.9966 14.9689 79.5691 10.8945 86.7436 10.8945C93.918 10.8945 97.5496 14.9689 97.5496 23.2063ZM82.0491 23.2063C82.1082 27.8122 83.673 30.1446 86.714 30.1446C89.7551 30.1446 91.2904 27.7236 91.3199 23.0292C91.3199 18.4233 89.7846 16.1204 86.7436 16.1204C83.6139 16.1204 82.0491 18.5119 82.0491 23.2063Z" fill="#C4C4C4"/>
<path d="M100.413 22.7043C100.591 15.0279 104.665 11.2192 112.607 11.2192H113.463V17.4194H111.456C108.149 17.4194 106.496 19.1614 106.496 22.6158V34.9275H100.443V22.7043H100.413Z" fill="#C4C4C4"/>
<path d="M138.116 3.01151V24.7121C138.116 31.8276 134.396 35.3705 127.015 35.341C119.664 35.1934 116.002 31.2076 116.002 23.3245C116.002 15.2642 119.132 11.1308 125.45 10.9241C128.403 10.9241 130.706 12.1346 132.211 14.5852V0H135.164C136.758 0 138.116 1.38766 138.116 3.01151ZM122.114 23.0292C122.055 27.8122 123.679 30.2332 127.074 30.2332C130.47 30.2332 132.182 27.8122 132.182 23.0292C132.034 18.4529 130.381 16.209 127.163 16.209C123.945 16.209 122.291 18.4529 122.114 23.0292Z" fill="#C4C4C4"/>
<path d="M189.253 35.4886C182.079 35.2524 178.506 31.0894 178.506 23.0292C178.506 14.9689 182.138 10.9241 189.342 10.8945C196.87 10.8945 200.413 15.5004 199.971 24.7711H184.647C184.883 28.4027 186.448 30.2332 189.342 30.2332C190.729 30.2332 192.028 29.6427 193.209 28.5207C193.741 27.9303 194.42 27.6645 195.217 27.6645H199.587C198.288 32.7132 195.069 35.4886 189.253 35.4886ZM184.706 20.5196H193.623C193.268 17.39 191.792 15.7661 189.224 15.7661C186.684 15.7661 185.179 17.39 184.706 20.5196Z" fill="#C4C4C4"/>
<path d="M16.8587 5.37376C19.6635 6.58427 22.0255 8.94625 23.5312 12.0759C25.037 15.2055 25.5684 18.8665 25.0665 22.4095C24.5646 25.9524 23.0293 29.2002 20.7264 31.5031C18.453 33.8355 15.5596 35.1051 12.5776 35.0756C9.5956 35.0756 6.70219 33.7765 4.42879 31.444C2.18491 29.1116 0.679157 25.8639 0.177237 22.3209C-0.324682 18.7484 0.236287 15.1169 1.77157 11.9873C3.27733 8.8872 5.66882 6.52522 8.47367 5.34424L9.86132 10.1863C8.00127 10.9834 6.40694 12.5483 5.4031 14.615C4.39926 16.6817 4.01544 19.1027 4.34021 21.4942C4.66499 23.8857 5.66882 26.0115 7.20411 27.5763C8.70986 29.1411 10.629 29.9973 12.6071 29.9973C14.5853 29.9973 16.5044 29.1706 18.0397 27.6058C19.5454 26.0705 20.5788 23.9152 20.9035 21.5533C21.2578 19.1913 20.874 16.7408 19.8702 14.674C18.8663 12.6073 17.3015 11.013 15.4415 10.2158L16.8587 5.37376Z" fill="#C4C4C4"/>
<path d="M14.1719 9.71366L14.1424 9.32984L15.7072 4.78305C13.8767 4.39923 11.9871 4.3697 10.127 4.69447C9.94988 4.724 9.77273 4.75352 9.62511 4.78305H9.59558L11.1604 9.32984L11.1309 9.71366L9.59558 25.5684L12.6661 28.3142L15.7367 25.5684L14.1719 9.71366Z" fill="#C4C4C4"/>
<path d="M165.132 10.9831C162.09 10.9831 159.758 11.6031 158.046 12.9022C156.333 11.5441 154.001 10.8945 150.96 10.8945C144.199 10.8945 140.774 14.2603 140.774 21.0215V24.594C140.774 32.1818 141.276 34.9571 146.826 34.9571H148.834C150.458 34.9571 151.845 33.6285 151.845 32.0047V29.0227C151.845 29.0227 148.804 29.0227 148.745 29.0227C146.915 29.0227 146.856 27.6645 146.856 24.594V19.811C146.915 17.3604 148.243 16.1499 150.901 16.1499C153.558 16.1499 154.886 17.3604 155.034 19.811V34.9571H161.028V19.8996C161.087 17.449 162.415 16.2385 165.072 16.2385C167.73 16.2385 169.058 17.449 169.206 19.8996V32.0932C169.206 33.9828 170.18 34.9276 172.158 35.0457H175.258V21.1101C175.258 14.3489 171.893 10.9831 165.132 10.9831Z" fill="#C4C4C4"/>
</g>
<defs>
<clipPath id="clip0_238_818">
<rect width="200" height="35.4886" fill="white"/>
</clipPath>
</defs>
</svg>
