<svg width="200" height="41" viewBox="0 0 200 41" fill="none" xmlns="http://www.w3.org/2000/svg">
<path d="M22.4771 40.6456C21.2578 40.6456 20.0519 40.2933 18.8597 39.5888C17.6945 38.9114 16.2042 37.8546 14.3887 36.4184C13.0338 35.3345 11.8686 34.4539 10.8931 33.7765C9.94474 33.1261 8.9015 32.5706 7.76343 32.11C6.65245 31.6493 5.51437 31.419 4.3492 31.419C3.94274 31.419 3.63113 31.4326 3.41435 31.4597L9.47054 3.29229C7.65504 4.02391 6.24599 5.14844 5.2434 6.66587C4.26791 8.15621 3.78016 9.98526 3.78016 12.153C3.78016 13.1556 3.875 13.8601 4.06468 14.2666C4.25436 14.646 4.3492 14.8627 4.3492 14.9169C2.88596 14.9169 1.78853 14.6189 1.05691 14.0227C0.352384 13.3995 0.00012207 12.3833 0.00012207 10.9743C0.00012207 9.24009 0.704645 7.56008 2.11369 5.93425C3.54984 4.28133 5.37889 2.95358 7.60084 1.95099C9.8228 0.921301 12.0448 0.406458 14.2667 0.406458C14.6461 0.406458 15.188 0.433554 15.8925 0.487748L9.63312 29.6713C10.3918 29.8609 11.1641 30.1319 11.9499 30.4842C12.7628 30.8635 13.7383 31.3648 14.8764 31.9881C16.6377 32.9365 18.1416 33.6545 19.3881 34.1423C20.6345 34.6571 21.9352 34.9145 23.29 34.9145C24.5094 34.9145 25.6475 34.6978 26.7043 34.2642C26.4875 36.2423 25.9997 37.8004 25.241 38.9384C24.5094 40.0765 23.5881 40.6456 22.4771 40.6456Z" fill="#C4C4C4"/>
<path d="M21.0914 30.6468C19.0862 30.6468 17.501 30.1319 16.3358 29.1022C15.1707 28.0725 14.5881 26.4467 14.5881 24.2248C14.5881 22.3822 14.9674 20.3363 15.7261 18.0873C16.4849 15.8382 17.7042 13.9008 19.3842 12.275C21.0643 10.622 23.1778 9.79558 25.725 9.79558C29.1934 9.79558 30.9276 11.9633 30.9276 16.2989V16.3395C31.0089 16.3666 31.1579 16.3802 31.3747 16.3802C32.2689 16.3802 33.2986 16.1498 34.4638 15.6892C35.6289 15.2014 36.6857 14.6189 37.6341 13.9414L37.9999 15.0389C37.2141 15.8789 36.1844 16.5969 34.9109 17.1931C33.6644 17.7621 32.296 18.1686 30.8057 18.4124C30.5889 20.8783 30.0334 23.0325 29.1392 24.8751C28.245 26.7177 27.0934 28.1403 25.6843 29.1429C24.2753 30.1455 22.7443 30.6468 21.0914 30.6468ZM22.7172 26.9887C23.3675 26.9887 24.0178 26.6228 24.6682 25.8912C25.3185 25.1325 25.8875 24.1164 26.3753 22.8428C26.863 21.5421 27.2153 20.106 27.4321 18.5344C26.7004 18.3718 26.3346 17.8028 26.3346 16.8273C26.3346 15.7163 26.7546 14.9847 27.5947 14.6324C27.5405 13.7382 27.405 13.1285 27.1882 12.8034C26.9714 12.4511 26.5921 12.275 26.0501 12.275C25.1559 12.275 24.2888 12.9253 23.4488 14.2259C22.6088 15.5266 21.9314 17.0847 21.4165 18.9002C20.9017 20.7157 20.6443 22.3144 20.6443 23.6964C20.6443 24.997 20.7933 25.8777 21.0914 26.3383C21.3894 26.7719 21.9314 26.9887 22.7172 26.9887Z" fill="#C4C4C4"/>
<path d="M35.7828 10.1614H41.6358L41.1074 12.6814C42.0287 11.8685 42.8552 11.2453 43.5868 10.8117C44.3455 10.3782 45.1584 10.1614 46.0255 10.1614C46.8926 10.1614 47.57 10.4595 48.0578 11.0556C48.5726 11.6517 48.8301 12.3698 48.8301 13.2098C48.8301 13.9956 48.5726 14.6866 48.0578 15.2827C47.5429 15.8789 46.8249 16.1769 45.9036 16.1769C45.3074 16.1769 44.901 16.0415 44.6842 15.7705C44.4945 15.4724 44.3455 15.0524 44.2371 14.5105C44.1558 14.1582 44.0745 13.9008 43.9932 13.7382C43.9119 13.5756 43.7629 13.4943 43.5461 13.4943C42.9771 13.4943 42.4893 13.6163 42.0829 13.8601C41.7035 14.0769 41.2022 14.4698 40.579 15.0389L37.3274 30.4842H31.4744L35.7828 10.1614Z" fill="#C4C4C4"/>
<path d="M54.113 30.728C52.1078 30.728 50.5498 30.2132 49.4388 29.1835C48.3278 28.1267 47.7723 26.4874 47.7723 24.2654C47.7723 22.3957 48.1381 20.3363 48.8697 18.0873C49.6014 15.8382 50.7936 13.9008 52.4466 12.275C54.0995 10.622 56.1995 9.79558 58.7466 9.79558C61.7273 9.79558 63.2176 11.0962 63.2176 13.6976C63.2176 15.215 62.7841 16.6105 61.917 17.8841C61.0499 19.1576 59.8982 20.1873 58.4621 20.9731C57.026 21.7318 55.495 22.1654 53.8692 22.2738C53.815 23.0867 53.7879 23.6286 53.7879 23.8996C53.7879 25.2273 54.0182 26.1351 54.4788 26.6228C54.9395 27.0835 55.6847 27.3138 56.7143 27.3138C58.1776 27.3138 59.424 26.9751 60.4537 26.2977C61.5105 25.6203 62.6621 24.5906 63.9086 23.2086H65.2906C62.2828 28.2216 58.5569 30.728 54.113 30.728ZM54.1943 20.3228C55.1969 20.2686 56.1453 19.9163 57.0395 19.266C57.9608 18.6157 58.6924 17.7892 59.2344 16.7866C59.8034 15.784 60.0879 14.7272 60.0879 13.6163C60.0879 12.5053 59.7492 11.9498 59.0718 11.9498C58.0963 11.9498 57.1343 12.8034 56.1859 14.5105C55.2646 16.2176 54.6008 18.155 54.1943 20.3228Z" fill="#C4C4C4"/>
<path d="M87.9216 30.728C86.4854 30.728 85.4422 30.2945 84.7919 29.4274C84.1415 28.5603 83.8164 27.4629 83.8164 26.1351C83.8164 25.5661 83.8841 24.9293 84.0196 24.2248C84.1551 23.4931 84.2906 22.7886 84.426 22.1112C84.5886 21.4338 84.697 21.0002 84.7512 20.8105C84.968 19.8621 85.1712 18.9273 85.3609 18.006C85.5506 17.0847 85.6454 16.3395 85.6454 15.7705C85.6454 14.3885 85.1577 13.6976 84.1822 13.6976C83.4776 13.6976 82.8544 14.0498 82.3125 14.7543C81.7705 15.4318 81.337 16.326 81.0118 17.4369L78.2479 30.4842H72.395L75.3621 16.4615C75.4434 16.1363 75.484 15.7976 75.484 15.4453C75.484 14.253 75.0776 13.6569 74.2647 13.6569C73.5059 13.6569 72.8421 14.0092 72.273 14.7137C71.7311 15.3911 71.2975 16.2989 70.9724 17.4369L68.2085 30.4842H62.3555L66.6639 10.1614H72.5169L72.0698 12.275C73.4517 10.7304 75.1047 9.95817 77.0286 9.95817C79.4131 9.95817 80.8086 11.1233 81.215 13.4537C82.7054 11.1504 84.5886 9.99881 86.8648 9.99881C88.2467 9.99881 89.3442 10.3782 90.1571 11.1369C90.97 11.8956 91.3764 13.0472 91.3764 14.5918C91.3764 15.3776 91.2816 16.2582 91.0919 17.2337C90.9022 18.1821 90.6313 19.3473 90.279 20.7292C90.0622 21.5692 89.859 22.3957 89.6693 23.2086C89.5067 23.9944 89.4255 24.6177 89.4255 25.0783C89.4255 25.6203 89.5474 26.0403 89.7913 26.3383C90.0351 26.6364 90.4551 26.7854 91.0513 26.7854C91.7016 26.7854 92.1487 26.7041 92.3926 26.5416C92.23 27.9235 91.7287 28.9667 90.8887 29.6713C90.0758 30.3758 89.0867 30.728 87.9216 30.728Z" fill="#C4C4C4"/>
<path d="M110.926 2.88584C109.11 3.61746 107.701 4.74198 106.699 6.25942C105.723 7.74976 105.235 9.57881 105.235 11.7466C105.235 12.7492 105.33 13.4537 105.52 13.8601C105.71 14.2395 105.804 14.4563 105.804 14.5105C104.341 14.5105 103.244 14.2124 102.512 13.6163C101.808 12.993 101.455 11.9769 101.455 10.5678C101.455 8.83364 102.16 7.15362 103.569 5.5278C105.005 3.87488 106.834 2.54712 109.056 1.54453C111.278 0.514844 113.5 0 115.722 0C116.101 0 116.643 0.0270975 117.348 0.0812925L110.885 30.4842H105.032L110.926 2.88584Z" fill="#C4C4C4"/>
<path d="M119.543 8.65751H125.396L124.745 11.7059C126.1 10.5408 127.685 9.95817 129.501 9.95817C131.018 9.95817 132.224 10.4595 133.118 11.462C134.012 12.4646 134.459 14.104 134.459 16.3802C134.459 18.5208 134.148 20.6886 133.525 22.8835C132.901 25.0512 131.845 26.9074 130.354 28.4519C128.864 29.9693 126.899 30.728 124.461 30.728C122.726 30.728 121.575 30.2403 121.006 29.2648L118.892 39.1823L112.755 40.6456L119.543 8.65751ZM123.201 27.1919C124.501 27.1919 125.572 26.5822 126.412 25.3628C127.279 24.1435 127.902 22.6938 128.281 21.0138C128.688 19.3066 128.891 17.7215 128.891 16.2582C128.891 14.0092 128.214 12.8846 126.859 12.8846C126.371 12.8846 125.87 13.0608 125.355 13.413C124.867 13.7653 124.434 14.253 124.054 14.8763L121.656 26.257C121.873 26.8803 122.388 27.1919 123.201 27.1919Z" fill="#C4C4C4"/>
<path d="M140.1 30.728C138.799 30.728 137.702 30.4842 136.808 29.9964C135.913 29.4816 135.25 28.8313 134.816 28.0454C134.383 27.2325 134.166 26.3925 134.166 25.5254C134.166 24.6312 134.383 23.8589 134.816 23.2086C135.223 22.5312 135.724 22.0434 136.32 21.7454C137.377 19.8486 138.298 17.9382 139.084 16.0144C139.87 14.0634 140.615 11.9633 141.319 9.71429L147.335 8.90138C147.47 12.3698 147.701 16.1227 148.026 20.1602C148.161 21.786 148.229 22.9647 148.229 23.6964C148.229 24.3196 148.175 24.8344 148.067 25.2409C149.34 24.5093 150.316 23.8319 150.993 23.2086H152.7C150.966 25.2138 148.893 26.9074 146.481 28.2893C145.696 29.1293 144.72 29.7526 143.555 30.159C142.417 30.5384 141.265 30.728 140.1 30.728ZM138.799 27.517C139.802 27.517 140.642 27.219 141.319 26.6228C141.997 26.0267 142.335 25.0648 142.335 23.737C142.335 22.9241 142.254 21.786 142.092 20.3228C141.821 17.2337 141.645 15.1608 141.563 14.104C140.913 16.2447 139.815 18.8053 138.271 21.786C138.894 22.1112 139.206 22.5854 139.206 23.2086C139.206 23.7235 139.03 24.1841 138.677 24.5906C138.352 24.997 137.932 25.2003 137.417 25.2003C136.848 25.2003 136.483 25.0241 136.32 24.6719C136.32 25.6474 136.51 26.3654 136.889 26.8261C137.295 27.2867 137.932 27.517 138.799 27.517Z" fill="#C4C4C4"/>
<path d="M155.01 30.728C153.71 30.728 152.653 30.3216 151.84 29.5087C151.054 28.6958 150.661 27.4764 150.661 25.8506C150.661 25.1732 150.77 24.2925 150.986 23.2086L153.75 10.1614H159.603L156.677 23.9809C156.595 24.3873 156.555 24.7667 156.555 25.119C156.555 26.2299 156.961 26.7854 157.774 26.7854C158.533 26.7854 159.183 26.4738 159.725 25.8506C160.267 25.2003 160.701 24.3196 161.026 23.2086L163.79 10.1614H169.643L166.716 23.9809C166.608 24.3873 166.554 24.8209 166.554 25.2815C166.554 25.8235 166.676 26.2164 166.919 26.4603C167.19 26.677 167.624 26.7854 168.22 26.7854C168.979 26.7854 169.629 26.4603 170.171 25.8099C170.74 25.1596 171.187 24.2925 171.512 23.2086H173.219C172.217 26.1351 170.97 28.1267 169.48 29.1835C168.017 30.2132 166.54 30.728 165.05 30.728C163.885 30.728 162.95 30.4029 162.245 29.7526C161.568 29.1022 161.161 28.1403 161.026 26.8667C160.104 28.3571 159.129 29.3732 158.099 29.9151C157.097 30.4571 156.067 30.728 155.01 30.728Z" fill="#C4C4C4"/>
<path d="M195.529 30.728C194.093 30.728 193.05 30.2945 192.399 29.4274C191.749 28.5603 191.424 27.4629 191.424 26.1351C191.424 25.5661 191.492 24.9293 191.627 24.2248C191.763 23.4931 191.898 22.7886 192.034 22.1112C192.196 21.4338 192.305 21.0002 192.359 20.8105C192.576 19.8621 192.779 18.9273 192.968 18.006C193.158 17.0847 193.253 16.3395 193.253 15.7705C193.253 14.3885 192.765 13.6976 191.79 13.6976C191.085 13.6976 190.462 14.0498 189.92 14.7543C189.378 15.4318 188.945 16.326 188.619 17.4369L185.855 30.4842H180.003L182.97 16.4615C183.051 16.1363 183.092 15.7976 183.092 15.4453C183.092 14.253 182.685 13.6569 181.872 13.6569C181.113 13.6569 180.45 14.0092 179.881 14.7137C179.339 15.3911 178.905 16.2989 178.58 17.4369L175.816 30.4842H169.963L174.271 10.1614H180.124L179.677 12.275C181.059 10.7304 182.712 9.95817 184.636 9.95817C187.021 9.95817 188.416 11.1233 188.823 13.4537C190.313 11.1504 192.196 9.99881 194.472 9.99881C195.854 9.99881 196.952 10.3782 197.765 11.1369C198.578 11.8956 198.984 13.0472 198.984 14.5918C198.984 15.3776 198.889 16.2582 198.699 17.2337C198.51 18.1821 198.239 19.3473 197.887 20.7292C197.67 21.5692 197.467 22.3957 197.277 23.2086C197.114 23.9944 197.033 24.6177 197.033 25.0783C197.033 25.6203 197.155 26.0403 197.399 26.3383C197.643 26.6364 198.063 26.7854 198.659 26.7854C199.309 26.7854 199.756 26.7041 200 26.5416C199.838 27.9235 199.336 28.9667 198.496 29.6713C197.683 30.3758 196.694 30.728 195.529 30.728Z" fill="#C4C4C4"/>
</svg>
