<svg width="165" height="180" viewBox="0 0 165 180" fill="none" xmlns="http://www.w3.org/2000/svg">
<g clip-path="url(#clip0_2310_2014)">
<path d="M120.6 158.76V74.7595C120.6 62.9995 130.08 53.5195 141.84 53.5195H143.52C155.28 53.5195 164.76 62.9995 164.76 74.7595V180H141.96C130.08 180 120.6 170.52 120.6 158.76Z" fill="#E7D132"/>
<path d="M120.6 22.7999V21.1199C120.6 9.35988 130.08 -0.120117 141.84 -0.120117H143.52C155.28 -0.120117 164.76 9.35988 164.76 21.1199V43.9199H141.96C130.08 44.0399 120.6 34.5599 120.6 22.7999Z" fill="#E7D132"/>
<path d="M0 158.76V74.7595C0 62.9995 9.48 53.5195 21.24 53.5195H22.8C34.56 53.5195 44.04 62.9995 44.04 74.7595V180H21.24C9.48 180 0 170.52 0 158.76Z" fill="#73756F"/>
<path d="M21.24 0H22.8C34.56 0 44.04 9.48 44.04 21.24V22.8C44.04 34.56 34.56 44.04 22.8 44.04H0V21.24C0 9.48 9.48 0 21.24 0Z" fill="#73756F"/>
<path d="M60.3604 105.24V21.24C60.3604 9.48 69.8404 0 81.4804 0H83.1604C94.9204 0 104.4 9.48 104.4 21.24V126.48H81.6004C69.8404 126.36 60.3604 116.88 60.3604 105.24Z" fill="#8068FA"/>
<path d="M104.4 157.2V158.88C104.4 170.64 94.9202 180.12 83.1602 180.12H81.4802C69.7202 180.12 60.2402 170.64 60.2402 158.88V136.08H83.0402C94.9202 135.96 104.4 145.44 104.4 157.2Z" fill="#8068FA"/>
</g>
<defs>
<clipPath id="clip0_2310_2014">
<rect width="164.64" height="180" fill="white"/>
</clipPath>
</defs>
</svg>
