<svg width="214" height="218" viewBox="0 0 214 218" fill="none" xmlns="http://www.w3.org/2000/svg">
<path fill-rule="evenodd" clip-rule="evenodd" d="M140.523 207.287H140.496C139.345 207.287 138.336 207.743 137.495 208.399C137.333 208.528 137.13 208.602 136.985 208.748C136.178 209.559 135.713 210.668 135.611 211.879C135.601 212.014 135.534 212.133 135.534 212.271C135.534 212.887 135.679 213.462 135.885 214.003C135.952 214.178 136.037 214.331 136.121 214.496C136.303 214.851 136.523 215.179 136.786 215.48C136.914 215.629 137.029 215.781 137.174 215.913C137.573 216.275 138.012 216.593 138.511 216.813H138.515C139.132 217.087 139.808 217.252 140.523 217.252C142.741 217.252 144.554 215.778 145.199 213.766C145.371 213.306 145.489 212.826 145.493 212.298C145.493 212.288 145.499 212.281 145.499 212.271C145.499 209.515 143.271 207.287 140.523 207.287ZM210.137 147.868C209.654 147.665 209.117 147.587 208.567 147.55C208.469 147.547 208.391 147.492 208.29 147.492H208.263C205.515 147.492 203.3 149.724 203.3 152.479C203.3 153.148 203.442 153.78 203.682 154.355C203.851 154.767 204.128 155.099 204.387 155.447C204.495 155.579 204.556 155.741 204.671 155.863C205.498 156.741 206.639 157.282 207.915 157.384C207.922 157.384 207.929 157.387 207.936 157.391V157.387C208.057 157.397 208.165 157.458 208.29 157.458C211.038 157.458 213.266 155.227 213.266 152.479C213.266 150.383 211.966 148.605 210.137 147.868ZM38.8731 59.7942H38.8461C36.0981 59.7942 33.8835 62.0253 33.8835 64.7771C33.8835 67.5254 36.1251 69.7599 38.8731 69.7599C41.6177 69.7599 43.8492 67.5254 43.8492 64.7771C43.8492 62.0253 41.6177 59.7942 38.8731 59.7942ZM38.8731 177.39H38.8461C36.0981 177.39 33.8835 179.618 33.8835 182.374C33.8835 185.123 36.1251 187.355 38.8731 187.355C41.6177 187.355 43.8492 185.123 43.8492 182.374C43.8492 179.618 41.6177 177.39 38.8731 177.39ZM72.7563 99.657C75.5043 99.657 77.7325 97.4225 77.7325 94.6742C77.7325 91.9191 75.5043 89.6913 72.7563 89.6913H72.7327C69.9813 89.6913 67.7667 91.9191 67.7667 94.6742C67.7667 97.4225 70.0084 99.657 72.7563 99.657ZM38.8731 29.8971H38.8461C36.0981 29.8971 33.8835 32.1282 33.8835 34.88C33.8835 37.6317 36.1251 39.8628 38.8731 39.8628C41.6177 39.8628 43.8492 37.6317 43.8492 34.88C43.8492 32.1282 41.6177 29.8971 38.8731 29.8971ZM38.8731 117.595H38.8461C36.0981 117.595 33.8835 119.826 33.8835 122.578C33.8835 125.33 36.1251 127.561 38.8731 127.561C41.6177 127.561 43.8492 125.33 43.8492 122.578C43.8492 119.826 41.6177 117.595 38.8731 117.595ZM38.8731 147.492H38.8461C36.0981 147.492 33.8835 149.724 33.8835 152.479C33.8835 155.227 36.1251 157.458 38.8731 157.458C41.6177 157.458 43.8492 155.227 43.8492 152.479C43.8492 149.724 41.6177 147.492 38.8731 147.492ZM72.7563 39.8628C75.5043 39.8628 77.7325 37.6317 77.7325 34.88C77.7325 32.1282 75.5043 29.8971 72.7563 29.8971H72.7327C69.9813 29.8971 67.7667 32.1282 67.7667 34.88C67.7667 37.6317 70.0084 39.8628 72.7563 39.8628ZM72.7563 69.7599C75.5043 69.7599 77.7325 67.5254 77.7325 64.7771C77.7325 62.0253 75.5043 59.7942 72.7563 59.7942H72.7327C69.9813 59.7942 67.7667 62.0253 67.7667 64.7771C67.7667 67.5254 70.0084 69.7599 72.7563 69.7599ZM72.7563 9.9657C75.5043 9.9657 77.7325 7.73458 77.7325 4.98285C77.7325 2.23113 75.5043 0 72.7563 0H72.7327C69.9813 0 67.7667 2.23113 67.7667 4.98285C67.7667 7.73458 70.0084 9.9657 72.7563 9.9657ZM38.8731 89.6913H38.8461C36.0981 89.6913 33.8835 91.9191 33.8835 94.6742C33.8835 97.4225 36.1251 99.657 38.8731 99.657C41.6177 99.657 43.8492 97.4225 43.8492 94.6742C43.8492 91.9191 41.6177 89.6913 38.8731 89.6913ZM4.99298 117.595H4.9626C2.2146 117.595 0 119.826 0 122.578C0 125.33 2.24498 127.561 4.99298 127.561C7.74098 127.561 9.9657 125.33 9.9657 122.578C9.9657 119.826 7.74098 117.595 4.99298 117.595ZM4.99298 89.6913H4.9626C2.2146 89.6913 0 91.9191 0 94.6742C0 97.4225 2.24498 99.657 4.99298 99.657C7.74098 99.657 9.9657 97.4225 9.9657 94.6742C9.9657 91.9191 7.74098 89.6913 4.99298 89.6913ZM4.99129 147.492H4.9609C4.33614 147.492 3.75191 147.634 3.20821 147.851C2.93129 147.956 2.70165 148.125 2.45175 148.277C2.24237 148.409 2.02961 148.527 1.8405 148.692C1.51292 148.96 1.25627 149.271 1.00636 149.615C0.959085 149.686 0.911806 149.751 0.864527 149.828C0.594363 150.248 0.395116 150.687 0.260034 151.181L0.256657 151.184V151.187C0.141837 151.606 0 152.019 0 152.479C0 154.439 1.16509 156.099 2.81647 156.91V156.914H2.81985C3.47837 157.235 4.18755 157.448 4.96428 157.451C4.97441 157.451 4.98116 157.458 4.99129 157.458C7.74022 157.458 9.9657 155.227 9.9657 152.479C9.9657 151.789 9.82724 151.133 9.57397 150.538C8.82088 148.75 7.0513 147.492 4.99129 147.492ZM174.407 89.6913H174.38C171.632 89.6913 169.417 91.9191 169.417 94.6742C169.417 97.4225 171.659 99.657 174.407 99.657C177.155 99.657 179.383 97.4225 179.383 94.6742C179.383 91.9191 177.155 89.6913 174.407 89.6913ZM4.99129 59.7942H4.9609C4.39356 59.7942 3.87011 59.9193 3.37706 60.1154C2.92791 60.2709 2.53617 60.5041 2.15794 60.7746C2.15456 60.7746 2.15456 60.7746 2.15119 60.7779C0.878036 61.6805 0 63.0936 0 64.7771C0 64.99 0.0945577 65.1692 0.121574 65.3788H0.118197C0.118197 65.3856 0.121574 65.3889 0.124951 65.3923C0.280296 66.6059 0.824003 67.6775 1.69191 68.4551C1.8101 68.5632 1.95869 68.6241 2.08365 68.7187C2.42473 68.9689 2.7523 69.2292 3.15417 69.3881C3.71814 69.6213 4.33277 69.7599 4.99129 69.7599C7.0513 69.7599 8.82088 68.5058 9.57397 66.7141C9.82724 66.1191 9.9657 65.4633 9.9657 64.7771C9.9657 64.0908 9.82724 63.435 9.57397 62.84C8.82088 61.0484 7.0513 59.7942 4.99129 59.7942ZM174.407 117.595H174.38C171.632 117.595 169.417 119.826 169.417 122.578C169.417 125.33 171.659 127.561 174.407 127.561C177.155 127.561 179.383 125.33 179.383 122.578C179.383 119.826 177.155 117.595 174.407 117.595ZM174.407 59.7942H174.38C171.632 59.7942 169.417 62.0253 169.417 64.7771C169.417 67.5254 171.659 69.7599 174.407 69.7599C177.155 69.7599 179.383 67.5254 179.383 64.7771C179.383 62.0253 177.155 59.7942 174.407 59.7942ZM174.407 177.39H174.38C171.632 177.39 169.417 179.618 169.417 182.374C169.417 185.123 171.659 187.355 174.407 187.355C177.155 187.355 179.383 185.123 179.383 182.374C179.383 179.618 177.155 177.39 174.407 177.39ZM174.407 147.492H174.38C171.632 147.492 169.417 149.724 169.417 152.479C169.417 155.227 171.659 157.458 174.407 157.458C177.155 157.458 179.383 155.227 179.383 152.479C179.383 149.724 177.155 147.492 174.407 147.492ZM140.525 9.9657C143.272 9.9657 145.499 7.73458 145.499 4.98285C145.499 4.98285 145.496 4.97947 145.496 4.97609C145.496 4.16815 145.26 3.43458 144.916 2.75849C144.882 2.69426 144.838 2.64693 144.801 2.58608C144.44 1.94717 143.947 1.41643 143.35 0.990485H143.346C142.533 0.412421 141.595 0 140.525 0H140.498C137.751 0 135.534 2.23113 135.534 4.98285C135.534 7.73458 137.778 9.9657 140.525 9.9657ZM174.407 29.8971H174.38C171.632 29.8971 169.417 32.1282 169.417 34.88C169.417 37.6317 171.659 39.8628 174.407 39.8628C177.155 39.8628 179.383 37.6317 179.383 34.88C179.383 32.1282 177.155 29.8971 174.407 29.8971ZM140.523 59.7942H140.496C137.748 59.7942 135.534 62.0253 135.534 64.7771C135.534 67.5254 137.775 69.7599 140.523 69.7599C143.271 69.7599 145.499 67.5254 145.499 64.7771C145.499 62.0253 143.271 59.7942 140.523 59.7942ZM140.523 147.492H140.496C137.748 147.492 135.534 149.724 135.534 152.479C135.534 155.227 137.775 157.458 140.523 157.458C143.271 157.458 145.499 155.227 145.499 152.479C145.499 149.724 143.271 147.492 140.523 147.492ZM140.523 117.595H140.496C137.748 117.595 135.534 119.826 135.534 122.578C135.534 125.33 137.775 127.561 140.523 127.561C143.271 127.561 145.499 125.33 145.499 122.578C145.499 119.826 143.271 117.595 140.523 117.595ZM140.523 89.6913H140.496C137.748 89.6913 135.534 91.9191 135.534 94.6742C135.534 97.4225 137.775 99.657 140.523 99.657C143.271 99.657 145.499 97.4225 145.499 94.6742C145.499 91.9191 143.271 89.6913 140.523 89.6913ZM140.523 177.39H140.496C137.748 177.39 135.534 179.618 135.534 182.374C135.534 185.123 137.775 187.355 140.523 187.355C143.271 187.355 145.499 185.123 145.499 182.374C145.499 179.618 143.271 177.39 140.523 177.39ZM72.7563 127.561C75.5043 127.561 77.7325 125.33 77.7325 122.578C77.7325 119.826 75.5043 117.595 72.7563 117.595H72.7327C69.9813 117.595 67.7667 119.826 67.7667 122.578C67.7667 125.33 70.0084 127.561 72.7563 127.561ZM76.2741 208.748C76.1255 208.599 75.923 208.524 75.7575 208.399C74.9169 207.743 73.9075 207.287 72.7563 207.287H72.7293C69.9813 207.287 67.7667 209.515 67.7667 212.271C67.7667 213.624 68.317 214.841 69.1948 215.741C69.1981 215.744 69.1981 215.748 69.2015 215.748C70.1063 216.674 71.3621 217.252 72.7563 217.252C73.0197 217.252 73.2459 217.144 73.4991 217.104C73.5024 217.104 73.5058 217.1 73.5092 217.1C74.684 216.918 75.7103 216.377 76.4564 215.521C76.5779 215.389 76.6488 215.227 76.7534 215.081C76.9796 214.76 77.2193 214.456 77.3679 214.087C77.5907 213.536 77.7223 212.934 77.7257 212.291C77.7257 212.285 77.7325 212.281 77.7325 212.271C77.7325 211.006 77.2227 209.884 76.4496 209.005C76.3787 208.923 76.3483 208.819 76.2741 208.748ZM206.35 69.3679C206.948 69.6214 207.603 69.7599 208.292 69.7599C209.018 69.7599 209.697 69.5876 210.318 69.3071C210.338 69.297 210.352 69.2801 210.372 69.2699C210.98 68.9861 211.503 68.5873 211.946 68.0939C212.749 67.2119 213.266 66.0629 213.266 64.7788C213.266 62.028 211.037 59.7942 208.292 59.7942H208.265C205.516 59.7942 203.3 62.028 203.3 64.7788C203.3 66.8402 204.56 68.6109 206.35 69.3679ZM208.292 99.657C211.037 99.657 213.266 97.4225 213.266 94.6742C213.266 91.9191 211.037 89.6913 208.292 89.6913H208.265C205.516 89.6913 203.3 91.9191 203.3 94.6742C203.3 97.4225 205.539 99.657 208.292 99.657ZM208.292 127.561C211.037 127.561 213.266 125.33 213.266 122.578C213.266 119.826 211.037 117.595 208.292 117.595H208.265C205.516 117.595 203.3 119.826 203.3 122.578C203.3 125.33 205.539 127.561 208.292 127.561ZM106.64 59.7942H106.616C103.868 59.7942 101.65 62.0253 101.65 64.7771C101.65 67.5254 103.892 69.7599 106.64 69.7599C109.388 69.7599 111.616 67.5254 111.616 64.7771C111.616 62.0253 109.388 59.7942 106.64 59.7942ZM106.64 29.8971H106.616C103.868 29.8971 101.65 32.1282 101.65 34.88C101.65 37.6317 103.892 39.8628 106.64 39.8628C109.388 39.8628 111.616 37.6317 111.616 34.88C111.616 32.1282 109.388 29.8971 106.64 29.8971ZM106.64 0H106.616C103.868 0 101.65 2.23113 101.65 4.98285C101.65 7.73458 103.892 9.9657 106.64 9.9657C109.388 9.9657 111.616 7.73458 111.616 4.98285C111.616 2.23113 109.388 0 106.64 0ZM72.7563 187.355C75.5043 187.355 77.7325 185.123 77.7325 182.374C77.7325 179.618 75.5043 177.39 72.7563 177.39H72.7327C69.9813 177.39 67.7667 179.618 67.7667 182.374C67.7667 185.123 70.0084 187.355 72.7563 187.355ZM72.7563 157.458C75.5043 157.458 77.7325 155.227 77.7325 152.479C77.7325 149.724 75.5043 147.492 72.7563 147.492H72.7327C69.9813 147.492 67.7667 149.724 67.7667 152.479C67.7667 155.227 70.0084 157.458 72.7563 157.458ZM106.64 89.6913H106.616C103.868 89.6913 101.65 91.9191 101.65 94.6742C101.65 97.4225 103.892 99.657 106.64 99.657C109.388 99.657 111.616 97.4225 111.616 94.6742C111.616 91.9191 109.388 89.6913 106.64 89.6913ZM140.523 29.8971H140.496C137.748 29.8971 135.534 32.1282 135.534 34.88C135.534 37.6317 137.775 39.8628 140.523 39.8628C143.271 39.8628 145.499 37.6317 145.499 34.88C145.499 32.1282 143.271 29.8971 140.523 29.8971ZM106.64 177.39H106.616C103.868 177.39 101.65 179.618 101.65 182.374C101.65 185.123 103.892 187.355 106.64 187.355C109.388 187.355 111.616 185.123 111.616 182.374C111.616 179.618 109.388 177.39 106.64 177.39ZM106.64 207.287H106.616C103.868 207.287 101.65 209.519 101.65 212.271C101.65 215.024 103.892 217.252 106.64 217.252C109.388 217.252 111.616 215.024 111.616 212.271C111.616 209.519 109.388 207.287 106.64 207.287ZM106.64 147.492H106.616C103.868 147.492 101.65 149.724 101.65 152.479C101.65 155.227 103.892 157.458 106.64 157.458C109.388 157.458 111.616 155.227 111.616 152.479C111.616 149.724 109.388 147.492 106.64 147.492ZM106.64 117.595H106.616C103.868 117.595 101.65 119.826 101.65 122.578C101.65 125.33 103.892 127.561 106.64 127.561C109.388 127.561 111.616 125.33 111.616 122.578C111.616 119.826 109.388 117.595 106.64 117.595Z" fill="#130D3A"/>
</svg>
