<svg width="260" height="56" viewBox="0 0 260 56" fill="none" xmlns="http://www.w3.org/2000/svg">
<path d="M11.5294 1.45068C11.7747 0.592018 12.5595 0 13.4525 0H36.1658C37.4945 0 38.4538 1.27171 38.0888 2.54931L31.7666 24.6827C31.5213 25.5413 30.7365 26.1333 29.8435 26.1333H7.13028C5.80158 26.1333 4.84226 24.8616 5.2072 23.584L11.5294 1.45068Z" fill="#565456"/>
<path d="M21.2335 31.3173C21.4788 30.4586 22.2636 29.8666 23.1566 29.8666H45.8699C47.1986 29.8666 48.1579 31.1383 47.7929 32.4159L41.4707 54.5492C41.2255 55.4079 40.4406 55.9999 39.5476 55.9999H16.8344C15.5057 55.9999 14.5464 54.7282 14.9113 53.4506L21.2335 31.3173Z" fill="#565456"/>
<path d="M37.9804 13.3966C38.2259 12.5382 39.0105 11.9465 39.9033 11.9465H50.348C51.6769 11.9465 52.6363 13.2186 52.2709 14.4964L49.3578 24.683C49.1124 25.5414 48.3277 26.1331 47.4349 26.1331H36.9902C35.6613 26.1331 34.7019 24.861 35.0673 23.5832L37.9804 13.3966Z" fill="#FB923C"/>
<path d="M3.64239 31.3167C3.88786 30.4583 4.67252 29.8666 5.56531 29.8666H16.01C17.3389 29.8666 18.2983 31.1387 17.9329 32.4165L15.0198 42.6031C14.7744 43.4615 13.9897 44.0532 13.0969 44.0532H2.65223C1.32328 44.0532 0.363921 42.7811 0.729314 41.5033L3.64239 31.3167Z" fill="#FB923C"/>
<path d="M68.6476 47.2585C68.6476 48.202 68.3857 48.9239 67.8619 49.4244C67.3382 49.9222 66.5838 50.1711 65.5988 50.1711H64.0001V44.4555H65.7669C66.6763 44.4555 67.3838 44.7004 67.8893 45.1904C68.3948 45.6804 68.6476 46.3698 68.6476 47.2585ZM67.6626 47.2898C67.6626 45.9215 67.0229 45.2373 65.7434 45.2373H64.9343V49.3853H65.5988C66.9747 49.3853 67.6626 48.6868 67.6626 47.2898Z" fill="#565456"/>
<path d="M74.2016 50.1711V44.4555H75.1357V50.1711H74.2016Z" fill="#565456"/>
<path d="M83.3086 47.0709H85.4114V49.9404C85.0675 50.0525 84.7365 50.132 84.4186 50.1789C84.1033 50.2258 83.762 50.2492 83.3945 50.2492C82.5294 50.2492 81.8623 49.9938 81.3933 49.483C80.9242 48.9696 80.6897 48.2463 80.6897 47.3133C80.6897 46.3932 80.9542 45.6739 81.4832 45.1552C82.0122 44.634 82.7405 44.3734 83.6682 44.3734C84.2649 44.3734 84.8303 44.488 85.3645 44.7174L85.0362 45.4954C84.5724 45.2817 84.1085 45.1748 83.6447 45.1748C83.0349 45.1748 82.5529 45.3664 82.1985 45.7495C81.8441 46.1326 81.6669 46.6565 81.6669 47.3211C81.6669 48.0196 81.8258 48.5512 82.1438 48.9161C82.4643 49.2784 82.9242 49.4595 83.5235 49.4595C83.8258 49.4595 84.1489 49.4218 84.4929 49.3462V47.8723H83.3086V47.0709Z" fill="#565456"/>
<path d="M91.11 50.1711V44.4555H92.0442V50.1711H91.11Z" fill="#565456"/>
<path d="M99.8535 50.1711H98.9193V45.2569H97.2386V44.4555H101.534V45.2569H99.8535V50.1711Z" fill="#565456"/>
<path d="M110.282 50.1711L109.711 48.5838H107.526L106.967 50.1711H105.982L108.12 44.432H109.136L111.274 50.1711H110.282ZM109.465 47.7785L108.929 46.2225C108.89 46.1183 108.835 45.9541 108.765 45.7299C108.697 45.5058 108.65 45.3416 108.624 45.2373C108.554 45.5579 108.451 45.9085 108.316 46.289L107.8 47.7785H109.465Z" fill="#565456"/>
<path d="M116.352 50.1711V44.4555H117.286V49.3696H119.705V50.1711H116.352Z" fill="#565456"/>
<path d="M136.489 47.3054C136.489 48.2359 136.255 48.9591 135.789 49.4752C135.325 49.9912 134.667 50.2492 133.815 50.2492C132.953 50.2492 132.289 49.9938 131.826 49.483C131.364 48.9696 131.134 48.2411 131.134 47.2976C131.134 46.3541 131.366 45.6296 131.829 45.124C132.296 44.6184 132.96 44.3655 133.823 44.3655C134.672 44.3655 135.329 44.6223 135.793 45.1357C136.257 45.6491 136.489 46.3724 136.489 47.3054ZM132.127 47.3054C132.127 48.0091 132.269 48.5434 132.553 48.9083C132.837 49.2706 133.257 49.4517 133.815 49.4517C134.37 49.4517 134.788 49.2719 135.07 48.9122C135.354 48.5526 135.496 48.017 135.496 47.3054C135.496 46.6043 135.355 46.0727 135.074 45.7104C134.795 45.3481 134.378 45.167 133.823 45.167C133.263 45.167 132.839 45.3481 132.553 45.7104C132.269 46.0727 132.127 46.6043 132.127 47.3054Z" fill="#565456"/>
<path d="M146.8 50.1711H145.654L142.844 45.6166H142.813L142.832 45.8707C142.869 46.3554 142.887 46.7985 142.887 47.1999V50.1711H142.039V44.4555H143.172L145.975 48.9865H145.998C145.993 48.9266 145.983 48.7089 145.967 48.3336C145.951 47.9557 145.944 47.6612 145.944 47.4501V44.4555H146.8V50.1711Z" fill="#565456"/>
<path d="M152.631 44.4555H154.327C155.114 44.4555 155.682 44.5701 156.032 44.7995C156.383 45.0288 156.559 45.3911 156.559 45.8863C156.559 46.2199 156.473 46.4975 156.301 46.719C156.129 46.9406 155.882 47.08 155.559 47.1373V47.1764C155.96 47.252 156.254 47.4019 156.442 47.626C156.632 47.8475 156.727 48.1486 156.727 48.5291C156.727 49.0425 156.548 49.4452 156.188 49.7371C155.831 50.0264 155.333 50.1711 154.695 50.1711H152.631V44.4555ZM153.565 46.8168H154.464C154.855 46.8168 155.14 46.7555 155.32 46.633C155.5 46.5079 155.59 46.2968 155.59 45.9997C155.59 45.7312 155.492 45.5371 155.297 45.4172C155.104 45.2973 154.796 45.2373 154.374 45.2373H153.565V46.8168ZM153.565 47.5752V49.3853H154.558C154.949 49.3853 155.243 49.311 155.441 49.1624C155.642 49.0113 155.742 48.7741 155.742 48.4509C155.742 48.1538 155.641 47.9336 155.438 47.7902C155.234 47.6469 154.925 47.5752 154.511 47.5752H153.565Z" fill="#565456"/>
<path d="M167.312 47.3054C167.312 48.2359 167.079 48.9591 166.612 49.4752C166.148 49.9912 165.49 50.2492 164.638 50.2492C163.776 50.2492 163.113 49.9938 162.649 49.483C162.188 48.9696 161.957 48.2411 161.957 47.2976C161.957 46.3541 162.189 45.6296 162.653 45.124C163.119 44.6184 163.784 44.3655 164.646 44.3655C165.496 44.3655 166.152 44.6223 166.616 45.1357C167.08 45.6491 167.312 46.3724 167.312 47.3054ZM162.95 47.3054C162.95 48.0091 163.092 48.5434 163.376 48.9083C163.66 49.2706 164.081 49.4517 164.638 49.4517C165.193 49.4517 165.612 49.2719 165.893 48.9122C166.177 48.5526 166.319 48.017 166.319 47.3054C166.319 46.6043 166.178 46.0727 165.897 45.7104C165.618 45.3481 165.201 45.167 164.646 45.167C164.086 45.167 163.662 45.3481 163.376 45.7104C163.092 46.0727 162.95 46.6043 162.95 47.3054Z" fill="#565456"/>
<path d="M176.407 50.1711L175.836 48.5838H173.651L173.093 50.1711H172.108L174.246 44.432H175.262L177.4 50.1711H176.407ZM175.59 47.7785L175.055 46.2225C175.016 46.1183 174.961 45.9541 174.891 45.7299C174.823 45.5058 174.776 45.3416 174.75 45.2373C174.679 45.5579 174.577 45.9085 174.441 46.289L173.925 47.7785H175.59Z" fill="#565456"/>
<path d="M183.411 47.1139H184.06C184.495 47.1139 184.811 47.0331 185.006 46.8715C185.201 46.7099 185.299 46.4701 185.299 46.1522C185.299 45.829 185.194 45.597 184.983 45.4563C184.771 45.3155 184.454 45.2452 184.029 45.2452H183.411V47.1139ZM183.411 47.8879V50.1711H182.477V44.4555H184.091C184.829 44.4555 185.375 44.5936 185.729 44.8699C186.084 45.1461 186.261 45.5631 186.261 46.1209C186.261 46.8324 185.891 47.3393 185.151 47.6417L186.765 50.1711H185.702L184.334 47.8879H183.411Z" fill="#565456"/>
<path d="M196.568 47.2585C196.568 48.202 196.306 48.9239 195.782 49.4244C195.258 49.9222 194.504 50.1711 193.519 50.1711H191.92V44.4555H193.687C194.596 44.4555 195.304 44.7004 195.809 45.1904C196.315 45.6804 196.568 46.3698 196.568 47.2585ZM195.583 47.2898C195.583 45.9215 194.943 45.2373 193.664 45.2373H192.854V49.3853H193.519C194.895 49.3853 195.583 48.6868 195.583 47.2898Z" fill="#565456"/>
<path d="M202.122 50.1711V44.4555H203.056V50.1711H202.122Z" fill="#565456"/>
<path d="M213.652 50.1711H212.507L209.696 45.6166H209.665L209.685 45.8707C209.721 46.3554 209.739 46.7985 209.739 47.1999V50.1711H208.891V44.4555H210.025L212.827 48.9865H212.851C212.846 48.9266 212.835 48.7089 212.819 48.3336C212.804 47.9557 212.796 47.6612 212.796 47.4501V44.4555H213.652V50.1711Z" fill="#565456"/>
<path d="M221.821 47.0709H223.924V49.9404C223.58 50.0525 223.249 50.132 222.931 50.1789C222.616 50.2258 222.274 50.2492 221.907 50.2492C221.042 50.2492 220.375 49.9938 219.906 49.483C219.437 48.9696 219.202 48.2463 219.202 47.3133C219.202 46.3932 219.467 45.6739 219.996 45.1552C220.525 44.634 221.253 44.3734 222.181 44.3734C222.777 44.3734 223.343 44.488 223.877 44.7174L223.549 45.4954C223.085 45.2817 222.621 45.1748 222.157 45.1748C221.547 45.1748 221.065 45.3664 220.711 45.7495C220.356 46.1326 220.179 46.6565 220.179 47.3211C220.179 48.0196 220.338 48.5512 220.656 48.9161C220.977 49.2784 221.437 49.4595 222.036 49.4595C222.338 49.4595 222.661 49.4218 223.005 49.3462V47.8723H221.821V47.0709Z" fill="#565456"/>
<path d="M87.8993 39.4708L85.5515 31.7614H73.7459L71.398 39.4708H64.0001L75.4292 6.94951H83.8238L95.2972 39.4708H87.8993ZM83.9124 26.0015L81.5646 18.4693C81.4169 17.9672 81.2176 17.3247 80.9666 16.542C80.7303 15.7444 80.4867 14.9395 80.2356 14.1272C79.9994 13.3002 79.8074 12.5839 79.6597 11.9784C79.5121 12.5839 79.3054 13.3371 79.0396 14.238C78.7885 15.1241 78.5449 15.966 78.3086 16.7635C78.0724 17.561 77.9026 18.1296 77.7992 18.4693L75.4735 26.0015H83.9124Z" fill="#565456"/>
<path d="M105.619 39.4708H98.8633V5H105.619V39.4708Z" fill="#565456"/>
<path d="M123.161 34.5306C123.899 34.5306 124.616 34.4568 125.31 34.3091C126.018 34.1614 126.72 33.9768 127.414 33.7552V38.7841C126.69 39.109 125.79 39.3748 124.712 39.5816C123.648 39.8031 122.482 39.9139 121.212 39.9139C119.735 39.9139 118.406 39.6776 117.225 39.205C116.059 38.7176 115.136 37.8832 114.456 36.7017C113.792 35.5054 113.46 33.8439 113.46 31.7171V19.7764H110.226V16.9186L113.947 14.6589L115.896 9.4307H120.215V14.7032H127.148V19.7764H120.215V31.7171C120.215 32.6623 120.481 33.3712 121.013 33.8439C121.559 34.3017 122.275 34.5306 123.161 34.5306Z" fill="#565456"/>
<path d="M139.197 5V12.0227C139.197 13.2485 139.153 14.4152 139.064 15.5229C138.991 16.6306 138.932 17.4133 138.887 17.8712H139.242C139.773 17.0146 140.401 16.3204 141.124 15.7888C141.863 15.2571 142.675 14.8657 143.561 14.6146C144.447 14.3635 145.399 14.238 146.418 14.238C148.205 14.238 149.763 14.5555 151.092 15.1906C152.421 15.8109 153.454 16.793 154.192 18.137C154.931 19.4662 155.3 21.1942 155.3 23.3209V39.4708H148.544V25.0046C148.544 23.2323 148.22 21.8957 147.57 20.9948C146.92 20.0939 145.916 19.6435 144.557 19.6435C143.199 19.6435 142.128 19.961 141.346 20.5961C140.563 21.2164 140.009 22.1394 139.685 23.3653C139.36 24.5763 139.197 26.0606 139.197 27.8181V39.4708H132.442V5H139.197Z" fill="#565456"/>
<path d="M172.466 14.238C174.754 14.238 176.726 14.6811 178.38 15.5672C180.033 16.4386 181.311 17.7087 182.211 19.3776C183.112 21.0465 183.563 23.0846 183.563 25.492V28.7707H167.593C167.667 30.6759 168.235 32.175 169.298 33.2679C170.376 34.346 171.868 34.8851 173.773 34.8851C175.353 34.8851 176.8 34.7226 178.114 34.3977C179.428 34.0728 180.779 33.5854 182.167 32.9356V38.1638C180.942 38.7693 179.657 39.2124 178.313 39.493C176.984 39.7736 175.367 39.9139 173.462 39.9139C170.982 39.9139 168.782 39.4561 166.862 38.5404C164.957 37.6247 163.458 36.229 162.366 34.3534C161.288 32.4777 160.749 30.1147 160.749 27.2643C160.749 24.3695 161.236 21.9622 162.211 20.0422C163.2 18.1075 164.573 16.6601 166.33 15.7001C168.088 14.7254 170.133 14.238 172.466 14.238ZM172.51 19.0453C171.196 19.0453 170.103 19.4662 169.232 20.3081C168.375 21.1499 167.881 22.4717 167.748 24.2735H177.228C177.213 23.2693 177.028 22.3757 176.674 21.593C176.334 20.8102 175.818 20.1899 175.124 19.7321C174.444 19.2742 173.573 19.0453 172.51 19.0453Z" fill="#565456"/>
<path d="M211.559 27.0427C211.559 29.1104 211.279 30.9417 210.718 32.5368C210.171 34.1319 209.367 35.4832 208.303 36.5909C207.255 37.6838 205.985 38.5109 204.494 39.0721C203.017 39.6333 201.349 39.9139 199.488 39.9139C197.746 39.9139 196.143 39.6333 194.682 39.0721C193.234 38.5109 191.972 37.6838 190.894 36.5909C189.831 35.4832 189.004 34.1319 188.413 32.5368C187.837 30.9417 187.549 29.1104 187.549 27.0427C187.549 24.2957 188.037 21.9696 189.011 20.0644C189.986 18.1592 191.374 16.7118 193.175 15.7223C194.977 14.7328 197.125 14.238 199.621 14.238C201.939 14.238 203.992 14.7328 205.778 15.7223C207.58 16.7118 208.99 18.1592 210.009 20.0644C211.043 21.9696 211.559 24.2957 211.559 27.0427ZM194.438 27.0427C194.438 28.6673 194.615 30.0335 194.969 31.1411C195.324 32.2488 195.878 33.0833 196.631 33.6445C197.384 34.2057 198.366 34.4863 199.577 34.4863C200.773 34.4863 201.74 34.2057 202.478 33.6445C203.231 33.0833 203.778 32.2488 204.117 31.1411C204.472 30.0335 204.649 28.6673 204.649 27.0427C204.649 25.4034 204.472 24.0446 204.117 22.9665C203.778 21.8736 203.231 21.0539 202.478 20.5074C201.725 19.961 200.743 19.6878 199.532 19.6878C197.746 19.6878 196.446 20.3007 195.634 21.5265C194.837 22.7523 194.438 24.5911 194.438 27.0427Z" fill="#565456"/>
<path d="M230.962 14.238C231.302 14.238 231.693 14.2602 232.136 14.3045C232.594 14.334 232.963 14.3783 233.244 14.4374L232.734 20.7733C232.513 20.6994 232.195 20.6478 231.782 20.6182C231.383 20.5739 231.036 20.5518 230.741 20.5518C229.87 20.5518 229.02 20.6625 228.194 20.8841C227.381 21.1056 226.651 21.4674 226.001 21.9696C225.351 22.457 224.834 23.1068 224.45 23.9191C224.081 24.7166 223.897 25.6988 223.897 26.8655V39.4708H217.141V14.7032H222.258L223.254 18.8681H223.587C224.074 18.0263 224.679 17.2583 225.403 16.5641C226.141 15.8552 226.975 15.294 227.906 14.8805C228.851 14.4522 229.87 14.238 230.962 14.238Z" fill="#565456"/>
<path d="M234.196 14.7032H241.594L246.268 28.6378C246.415 29.0809 246.541 29.5313 246.644 29.9891C246.747 30.447 246.836 30.9196 246.91 31.407C246.984 31.8944 247.043 32.4039 247.087 32.9356H247.22C247.309 32.138 247.427 31.3922 247.574 30.6981C247.737 30.0039 247.936 29.3172 248.172 28.6378L252.757 14.7032H260L249.523 42.6388C248.889 44.352 248.062 45.7772 247.043 46.9144C246.024 48.0664 244.85 48.9304 243.521 49.5064C242.207 50.0824 240.76 50.3704 239.18 50.3704C238.412 50.3704 237.747 50.3261 237.186 50.2374C236.625 50.1636 236.145 50.0824 235.747 49.9938V44.6326C236.057 44.7065 236.448 44.7729 236.92 44.832C237.393 44.8911 237.888 44.9206 238.404 44.9206C239.35 44.9206 240.162 44.7212 240.841 44.3225C241.52 43.9237 242.089 43.3846 242.546 42.7053C243.004 42.0406 243.366 41.3096 243.632 40.5121L244.03 39.2936L234.196 14.7032Z" fill="#565456"/>
</svg>
