<svg width="293" height="60" viewBox="0 0 293 60" fill="none" xmlns="http://www.w3.org/2000/svg">
<path d="M11.9283 1.39239C12.1638 0.568206 12.9172 0 13.7743 0H37.5146C38.7902 0 39.7112 1.22105 39.3607 2.44761L32.7542 25.5633C32.5187 26.3875 31.7653 26.9557 30.9082 26.9557H7.16792C5.89225 26.9557 4.97129 25.7346 5.32184 24.5081L11.9283 1.39239Z" fill="#565456"/>
<path d="M21.9433 32.1988C22.1788 31.3746 22.9322 30.8064 23.7894 30.8064H47.5296C48.8053 30.8064 49.7262 32.0274 49.3757 33.254L42.7693 56.3697C42.5337 57.1939 41.7804 57.7621 40.9232 57.7621H17.1829C15.9073 57.7621 14.9863 56.541 15.3369 55.3145L21.9433 32.1988Z" fill="#565456"/>
<path d="M39.2265 13.7142C39.4623 12.8903 40.2155 12.3224 41.0724 12.3224H52.1512C53.4271 12.3224 54.3481 13.5439 53.9971 14.7706L50.9089 25.5636C50.6732 26.3875 49.92 26.9555 49.063 26.9555H37.9843C36.7084 26.9555 35.7874 25.734 36.1383 24.5073L39.2265 13.7142Z" fill="#FB923C"/>
<path d="M3.78865 32.1983C4.0244 31.3744 4.77761 30.8065 5.63458 30.8065H16.7133C17.9892 30.8065 18.9102 32.0279 18.5592 33.2546L15.4711 44.0477C15.2353 44.8716 14.4821 45.4395 13.6251 45.4395H2.54641C1.2705 45.4395 0.349496 44.2181 0.700482 42.9914L3.78865 32.1983Z" fill="#FB923C"/>
<path d="M96.9556 47.5581L94.2811 38.7578H80.8331L78.1586 47.5581H69.7314L82.7506 10.4348H92.3131L105.383 47.5581H96.9556ZM92.4141 32.1828L89.7396 23.5848C89.5714 23.0116 89.3443 22.2782 89.0583 21.3847C88.7892 20.4743 88.5117 19.5555 88.2257 18.6283C87.9566 17.6842 87.7379 16.8665 87.5697 16.1753C87.4015 16.8665 87.166 17.7263 86.8633 18.7547C86.5773 19.7662 86.2998 20.7272 86.0306 21.6376C85.7615 22.548 85.5681 23.197 85.4503 23.5848L82.8011 32.1828H92.4141Z" fill="#565456"/>
<path d="M117.14 47.5581H109.445V8.20947H117.14V47.5581Z" fill="#565456"/>
<path d="M137.123 41.9188C137.964 41.9188 138.78 41.8345 139.571 41.6659C140.378 41.4974 141.177 41.2866 141.968 41.0337V46.7742C141.143 47.1451 140.117 47.4485 138.889 47.6846C137.678 47.9374 136.35 48.0639 134.903 48.0639C133.221 48.0639 131.707 47.7941 130.361 47.2547C129.033 46.6983 127.981 45.7458 127.208 44.3971C126.451 43.0315 126.072 41.1349 126.072 38.7072V25.0768H122.388V21.8146L126.627 19.2352L128.848 13.2671H133.768V19.2858H141.665V25.0768H133.768V38.7072C133.768 39.7862 134.07 40.5954 134.676 41.1349C135.298 41.6575 136.114 41.9188 137.123 41.9188Z" fill="#565456"/>
<path d="M155.39 8.20947V16.2259C155.39 17.6252 155.34 18.957 155.239 20.2214C155.155 21.4858 155.088 22.3794 155.037 22.902H155.441C156.046 21.9242 156.761 21.1318 157.586 20.5249C158.427 19.918 159.352 19.4712 160.361 19.1846C161.37 18.898 162.455 18.7547 163.616 18.7547C165.651 18.7547 167.426 19.1172 168.939 19.8421C170.453 20.5502 171.631 21.6713 172.472 23.2055C173.313 24.7228 173.733 26.6952 173.733 29.1229V47.5581H166.038V31.0448C166.038 29.0218 165.668 27.496 164.928 26.4677C164.188 25.4393 163.044 24.9251 161.496 24.9251C159.949 24.9251 158.729 25.2875 157.838 26.0125C156.946 26.7205 156.316 27.7742 155.946 29.1735C155.576 30.5559 155.39 32.2502 155.39 34.2565V47.5581H147.695V8.20947H155.39Z" fill="#565456"/>
<path d="M193.287 18.7547C195.895 18.7547 198.14 19.2605 200.024 20.272C201.908 21.2667 203.363 22.7165 204.389 24.6216C205.415 26.5267 205.928 28.8532 205.928 31.6012V35.3439H187.737C187.821 37.5187 188.468 39.2298 189.679 40.4774C190.907 41.7081 192.606 42.3234 194.776 42.3234C196.576 42.3234 198.224 42.138 199.721 41.7671C201.218 41.3962 202.757 40.8399 204.339 40.0981V46.0661C202.942 46.7573 201.479 47.2631 199.948 47.5834C198.434 47.9037 196.593 48.0639 194.423 48.0639C191.597 48.0639 189.091 47.5413 186.904 46.496C184.734 45.4508 183.027 43.8576 181.782 41.7165C180.554 39.5754 179.94 36.878 179.94 33.6242C179.94 30.3199 180.495 27.5719 181.605 25.3803C182.732 23.1717 184.297 21.5196 186.298 20.4237C188.3 19.3111 190.63 18.7547 193.287 18.7547ZM193.338 24.2423C191.841 24.2423 190.596 24.7228 189.604 25.6837C188.628 26.6447 188.065 28.1535 187.913 30.2103H198.712C198.695 29.0639 198.485 28.044 198.081 27.1504C197.694 26.2569 197.106 25.5488 196.315 25.0262C195.541 24.5036 194.549 24.2423 193.338 24.2423Z" fill="#565456"/>
<path d="M237.82 33.3714C237.82 35.7316 237.5 37.8221 236.861 39.6429C236.239 41.4636 235.322 43.0062 234.111 44.2706C232.917 45.5182 231.47 46.4623 229.771 47.1029C228.089 47.7436 226.188 48.0639 224.069 48.0639C222.084 48.0639 220.259 47.7436 218.594 47.1029C216.946 46.4623 215.507 45.5182 214.279 44.2706C213.068 43.0062 212.126 41.4636 211.454 39.6429C210.798 37.8221 210.47 35.7316 210.47 33.3714C210.47 30.2356 211.025 27.5803 212.135 25.4055C213.245 23.2307 214.826 21.5786 216.878 20.449C218.93 19.3195 221.378 18.7547 224.22 18.7547C226.861 18.7547 229.199 19.3195 231.235 20.449C233.287 21.5786 234.893 23.2307 236.054 25.4055C237.231 27.5803 237.82 30.2356 237.82 33.3714ZM218.316 33.3714C218.316 35.2258 218.518 36.7853 218.922 38.0497C219.326 39.3141 219.956 40.2667 220.814 40.9073C221.672 41.5479 222.791 41.8682 224.17 41.8682C225.533 41.8682 226.634 41.5479 227.475 40.9073C228.333 40.2667 228.955 39.3141 229.342 38.0497C229.746 36.7853 229.948 35.2258 229.948 33.3714C229.948 31.5 229.746 29.949 229.342 28.7183C228.955 27.4708 228.333 26.5351 227.475 25.9113C226.617 25.2875 225.499 24.9756 224.12 24.9756C222.084 24.9756 220.604 25.6753 219.679 27.0746C218.771 28.4739 218.316 30.5728 218.316 33.3714Z" fill="#565456"/>
<path d="M259.922 18.7547C260.309 18.7547 260.755 18.78 261.26 18.8306C261.781 18.8643 262.201 18.9149 262.521 18.9823L261.941 26.2148C261.688 26.1305 261.327 26.0715 260.856 26.0377C260.402 25.9872 260.006 25.9619 259.67 25.9619C258.678 25.9619 257.71 26.0883 256.768 26.3412C255.843 26.5941 255.011 27.0071 254.271 27.5803C253.53 28.1367 252.942 28.8785 252.504 29.8057C252.084 30.7161 251.874 31.8372 251.874 33.1691V47.5581H244.178V19.2858H250.007L251.142 24.04H251.52C252.075 23.079 252.765 22.2024 253.589 21.41C254.43 20.6008 255.381 19.9601 256.44 19.4881C257.517 18.9992 258.678 18.7547 259.922 18.7547Z" fill="#565456"/>
<path d="M263.606 19.2858H272.033L277.357 35.1921C277.525 35.6979 277.668 36.2121 277.786 36.7347C277.904 37.2573 278.004 37.7968 278.089 38.3532C278.173 38.9095 278.24 39.4911 278.29 40.0981H278.442C278.543 39.1877 278.677 38.3363 278.845 37.5439C279.031 36.7516 279.258 35.9676 279.527 35.1921L284.75 19.2858H293L281.066 51.1744C280.343 53.13 279.401 54.7569 278.24 56.055C277.079 57.37 275.742 58.3562 274.228 59.0137C272.731 59.6712 271.083 60 269.283 60C268.408 60 267.651 59.9494 267.012 59.8483C266.373 59.764 265.826 59.6712 265.372 59.5701V53.4503C265.725 53.5346 266.171 53.6105 266.709 53.6779C267.248 53.7453 267.811 53.7791 268.4 53.7791C269.476 53.7791 270.402 53.5515 271.175 53.0963C271.949 52.6411 272.597 52.0257 273.118 51.2502C273.639 50.4916 274.052 49.6571 274.354 48.7467L274.809 47.3558L263.606 19.2858Z" fill="#565456"/>
</svg>