<svg width="185" height="180" viewBox="0 0 185 180" fill="none" xmlns="http://www.w3.org/2000/svg">
<path d="M130.6 7.59961L130 8.99961L120.2 39.7996L119.4 42.5996C136.4 51.5996 148 69.3996 148 89.9996C148 119.6 124 143.6 94.4 143.6H90C60.4 143.6 36.4 119.6 36.4 89.9996C36.4 69.5996 47.8 51.7996 64.6 42.7996L63.8 39.9996L54 9.19961L53.6 7.79961C22 21.7996 0 53.1996 0 89.9996C0 126.6 22 158.2 53.6 172.2C64.6 177.2 77 180 90 180H94.2C107 180 119.4 177.2 130.4 172.4C162 158.4 184.2 126.8 184.2 89.9996C184.2 53.1996 162.2 21.5996 130.6 7.59961Z" fill="#FB923C"/>
<path d="M102.8 38.6L113.6 2.2C107.4 0.8 100.8 0 94.1999 0H92.1999H90.1999C83.5999 0 76.9999 0.8 70.7999 2.2L81.5999 38.6L70.3999 115.2L70.5999 115.4L92.1999 131.2L113.8 115.4L114 115.2L102.8 38.6Z" fill="#374151"/>
</svg>
