<svg width="24" height="24" viewBox="0 0 24 24" fill="none" xmlns="http://www.w3.org/2000/svg">
<g clip-path="url(#clip0_251_102)">
<path d="M22.0939 11.7241H20.9689C20.6011 11.7252 20.2438 11.8466 19.9515 12.0698C19.6592 12.2929 19.448 12.6056 19.35 12.9601L13.6181 11.0896C13.1805 10.9478 12.7137 10.9216 12.2629 11.0135C11.8122 11.1053 11.3929 11.3121 11.0456 11.6138L9.33863 13.1037H4.6875C4.61569 12.7166 4.41083 12.3668 4.10835 12.1148C3.80588 11.8628 3.42482 11.7244 3.03113 11.7237H1.90613C1.45873 11.7242 1.02979 11.9021 0.713433 12.2185C0.397073 12.5349 0.219124 12.9638 0.218628 13.4112V20.9112C0.219124 21.3586 0.397073 21.7875 0.713433 22.1039C1.02979 22.4203 1.45873 22.5982 1.90613 22.5987H3.03113C3.37028 22.598 3.70134 22.4951 3.9811 22.3033C4.26086 22.1116 4.47633 21.84 4.59938 21.524L9.867 23.6191C10.3244 23.8041 10.8242 23.858 11.3105 23.7749C11.7968 23.6918 12.2503 23.4749 12.6203 23.1485L13.668 22.2275L19.3916 21.4951C19.5104 21.818 19.7253 22.0969 20.0072 22.2942C20.2892 22.4915 20.6248 22.5977 20.9689 22.5987H22.0939C22.5413 22.5982 22.9702 22.4203 23.2866 22.1039C23.6029 21.7875 23.7809 21.3586 23.7814 20.9112V13.4112C23.7809 12.9638 23.6029 12.5349 23.2866 12.2185C22.9702 11.9021 22.5413 11.7246 22.0939 11.7241ZM3.59363 20.9116C3.59343 21.0607 3.5341 21.2037 3.42866 21.3091C3.32321 21.4146 3.18025 21.4739 3.03113 21.4741H1.90613C1.757 21.4739 1.61405 21.4146 1.5086 21.3091C1.40315 21.2037 1.34383 21.0607 1.34363 20.9116V13.4116C1.34383 13.2625 1.40315 13.1195 1.5086 13.0141C1.61405 12.9086 1.757 12.8493 1.90613 12.8491H3.03113C3.18025 12.8493 3.32321 12.9086 3.42866 13.0141C3.5341 13.1195 3.59343 13.2625 3.59363 13.4116V20.9116ZM12.1699 18.3777L14.7934 19.7052C14.594 19.9296 14.374 20.1349 14.1364 20.3183C14.0486 20.252 14.2163 20.3521 11.1229 18.782C10.9898 18.7146 10.8353 18.7028 10.6935 18.7493C10.5518 18.7958 10.4343 18.8967 10.3669 19.0298C10.2995 19.1629 10.2878 19.3174 10.3342 19.4592C10.3807 19.6009 10.4816 19.7184 10.6148 19.7858L13.2341 21.1115L12.5543 21.7092C12.4811 21.6597 12.3146 21.5843 9.56775 20.1901C9.43463 20.1227 9.28019 20.111 9.13842 20.1574C8.99664 20.2039 8.87913 20.3048 8.81175 20.438C8.74437 20.5711 8.73263 20.7255 8.77912 20.8673C8.8256 21.0091 8.92651 21.1266 9.05963 21.194L11.6138 22.4862C11.4134 22.6001 11.1898 22.6673 10.9598 22.6827C10.7298 22.6981 10.4993 22.6613 10.2855 22.5751L4.71863 20.3611V14.2291H8.05013L7.47863 14.7278C7.28842 14.8936 7.13946 15.1014 7.04355 15.3348C6.94764 15.5682 6.90743 15.8207 6.9261 16.0723C6.94477 16.324 7.02181 16.5678 7.15111 16.7844C7.28041 17.0011 7.45841 17.1847 7.671 17.3206L8.14463 17.6243C8.44298 17.8139 8.79482 17.9015 9.14722 17.8739C9.49962 17.8463 9.83354 17.705 10.0988 17.4713L11.8249 15.9421L14.4161 17.4942C14.6157 17.6118 14.7847 17.7748 14.9095 17.9699C15.0343 18.165 15.1113 18.3869 15.1343 18.6173L12.6773 17.3742C12.5447 17.3113 12.3928 17.3026 12.254 17.3501C12.1151 17.3976 12.0004 17.4975 11.9341 17.6284C11.8679 17.7593 11.8554 17.9109 11.8994 18.0509C11.9434 18.1909 12.0407 18.3082 12.1699 18.3777ZM19.2814 20.3753L15.177 20.9011L15.3795 20.723C15.6891 20.4525 15.9301 20.1125 16.0828 19.7308C16.2354 19.3492 16.2954 18.9367 16.2577 18.5274C16.2201 18.1181 16.0859 17.7235 15.8661 17.3761C15.6464 17.0287 15.3474 16.7384 14.9936 16.529C14.3678 16.1547 12.117 14.804 12.0289 14.756C11.9278 14.6997 11.8118 14.6764 11.6969 14.6892C11.582 14.7019 11.4739 14.7502 11.3876 14.8272L9.35288 16.6295C9.27118 16.7014 9.16831 16.7449 9.05976 16.7533C8.95122 16.7618 8.84286 16.7348 8.751 16.6763L8.27775 16.3733C8.21225 16.3316 8.1574 16.2751 8.11755 16.2084C8.07771 16.1417 8.05397 16.0666 8.04821 15.9892C8.04246 15.9117 8.05486 15.834 8.08442 15.7621C8.11398 15.6903 8.15989 15.6263 8.2185 15.5753L11.7859 12.4617C11.9862 12.2878 12.2281 12.1685 12.4881 12.1155C12.748 12.0625 13.0173 12.0775 13.2698 12.1591L19.281 14.1207L19.2814 20.3753ZM22.6564 20.9116C22.6562 21.0607 22.5969 21.2037 22.4914 21.3091C22.386 21.4146 22.243 21.4739 22.0939 21.4741H20.9689C20.8198 21.4739 20.6768 21.4146 20.5714 21.3091C20.4659 21.2037 20.4066 21.0607 20.4064 20.9116C20.4064 11.5508 20.4094 13.7626 20.4064 13.4116C20.4066 13.2625 20.4659 13.1195 20.5714 13.0141C20.6768 12.9086 20.8198 12.8493 20.9689 12.8491H22.0939C22.243 12.8493 22.386 12.9086 22.4914 13.0141C22.5969 13.1195 22.6562 13.2625 22.6564 13.4116V20.9116Z" fill="black"/>
<path d="M4.29975 7.93764L4.90125 8.16039L5.124 8.7619C5.14316 8.81301 5.17747 8.85705 5.22233 8.88815C5.26719 8.91924 5.32048 8.9359 5.37506 8.9359C5.42965 8.9359 5.48293 8.91924 5.5278 8.88815C5.57266 8.85705 5.60696 8.81301 5.62613 8.7619L5.8485 8.16039L6.45 7.93764C6.50111 7.91848 6.54516 7.88418 6.57625 7.83932C6.60735 7.79445 6.62401 7.74117 6.62401 7.68658C6.62401 7.632 6.60735 7.57871 6.57625 7.53385C6.54516 7.48899 6.50111 7.45468 6.45 7.43552L5.8485 7.21277L5.62613 6.61127C5.60703 6.56003 5.57274 6.51586 5.52783 6.48467C5.48292 6.45348 5.42955 6.43676 5.37488 6.43676C5.3202 6.43676 5.26683 6.45348 5.22192 6.48467C5.17701 6.51586 5.14272 6.56003 5.12363 6.61127L4.90125 7.21277L4.29975 7.43552C4.24852 7.45461 4.20434 7.48891 4.17315 7.53382C4.14196 7.57872 4.12524 7.63209 4.12524 7.68677C4.12524 7.74145 4.14196 7.79482 4.17315 7.83972C4.20434 7.88463 4.24852 7.91855 4.29975 7.93764ZM17.4248 3.37502L18.0263 3.59777L18.249 4.19927C18.2682 4.25038 18.3025 4.29443 18.3473 4.32552C18.3922 4.35661 18.4455 4.37327 18.5001 4.37327C18.5546 4.37327 18.6079 4.35661 18.6528 4.32552C18.6977 4.29443 18.732 4.25038 18.7511 4.19927L18.9735 3.59777L19.575 3.37539C19.6262 3.3563 19.6704 3.32201 19.7016 3.2771C19.7328 3.23219 19.7495 3.17882 19.7495 3.12414C19.7495 3.06947 19.7328 3.0161 19.7016 2.97119C19.6704 2.92628 19.6262 2.89199 19.575 2.87289L18.9735 2.65052L18.7511 2.04902C18.732 1.99778 18.6977 1.95361 18.6528 1.92242C18.6079 1.89123 18.5546 1.87451 18.4999 1.87451C18.4452 1.87451 18.3918 1.89123 18.3469 1.92242C18.302 1.95361 18.2677 1.99778 18.2486 2.04902L18.0263 2.65052L17.4248 2.87289C17.3735 2.89199 17.3293 2.92628 17.2982 2.97119C17.267 3.0161 17.2502 3.06947 17.2502 3.12414C17.2502 3.17882 17.267 3.23219 17.2982 3.2771C17.3293 3.32201 17.3735 3.3563 17.4248 3.37539V3.37502ZM12 9.56177C12.9271 9.56177 13.8334 9.28685 14.6042 8.77178C15.3751 8.25671 15.9759 7.52463 16.3307 6.6681C16.6855 5.81157 16.7783 4.86907 16.5974 3.95978C16.4166 3.0505 15.9701 2.21527 15.3146 1.55971C14.659 0.904148 13.8238 0.457707 12.9145 0.276839C12.0052 0.0959705 11.0627 0.188799 10.2062 0.543584C9.34964 0.89837 8.61756 1.49918 8.10249 2.27003C7.58742 3.04089 7.3125 3.94717 7.3125 4.87427C7.31389 6.11705 7.8082 7.30852 8.68697 8.1873C9.56575 9.06607 10.7572 9.56038 12 9.56177ZM9.76875 4.58214C9.87382 4.47641 10.0166 4.4167 10.1656 4.41614C10.3147 4.41558 10.4579 4.4742 10.5638 4.57914L11.3239 5.33364L13.4344 3.22314C13.486 3.16851 13.5481 3.12479 13.6169 3.09456C13.6858 3.06432 13.76 3.0482 13.8352 3.04714C13.9103 3.04608 13.985 3.06009 14.0546 3.08837C14.1243 3.11664 14.1876 3.15859 14.2408 3.21174C14.294 3.26489 14.3359 3.32816 14.3642 3.39782C14.3925 3.46747 14.4066 3.54209 14.4056 3.61727C14.4045 3.69245 14.3885 3.76666 14.3583 3.83551C14.3281 3.90437 14.2844 3.96647 14.2298 4.01814L11.7229 6.52502C11.6177 6.63021 11.475 6.68943 11.3262 6.68971C11.1775 6.69 11.0346 6.63132 10.929 6.52652L9.77138 5.37752C9.66569 5.2724 9.60605 5.12963 9.60556 4.98056C9.60506 4.8315 9.66376 4.68834 9.76875 4.58252V4.58214Z" fill="#3E3EF4"/>
</g>
<defs>
<clipPath id="clip0_251_102">
<rect width="24" height="24" fill="white"/>
</clipPath>
</defs>
</svg>
