<svg width="23" height="22" viewBox="0 0 23 22" fill="none" xmlns="http://www.w3.org/2000/svg">
<path d="M10.5008 0.92705C10.8002 0.00573897 12.1036 0.00574088 12.403 0.927052L14.3706 6.98278C14.5045 7.3948 14.8884 7.67376 15.3216 7.67376H21.689C22.6577 7.67376 23.0605 8.91338 22.2768 9.48278L17.1255 13.2254C16.775 13.4801 16.6283 13.9314 16.7622 14.3435L18.7298 20.3992C19.0292 21.3205 17.9747 22.0866 17.191 21.5172L12.0397 17.7746C11.6892 17.5199 11.2146 17.5199 10.8641 17.7746L5.71281 21.5172C4.92909 22.0866 3.87461 21.3205 4.17397 20.3992L6.14159 14.3435C6.27547 13.9314 6.12881 13.4801 5.77832 13.2254L0.62701 9.48278C-0.156704 8.91338 0.246073 7.67376 1.2148 7.67376H7.58217C8.01539 7.67376 8.39935 7.3948 8.53322 6.98278L10.5008 0.92705Z" fill="#FFB545"/>
</svg>
