<svg width="159" height="39" viewBox="0 0 159 39" fill="none" xmlns="http://www.w3.org/2000/svg">
<path d="M50.825 14.05C50.1083 14.05 49.4667 14.1917 48.9 14.475C48.35 14.7583 47.8833 15.1667 47.5 15.7C47.1167 16.2167 46.825 16.85 46.625 17.6C46.4417 18.35 46.35 19.1917 46.35 20.125C46.35 21.3917 46.5 22.475 46.8 23.375C47.1167 24.2583 47.6083 24.9333 48.275 25.4C48.9417 25.8667 49.7917 26.1 50.825 26.1C51.5583 26.1 52.2833 26.0167 53 25.85C53.7333 25.6833 54.525 25.45 55.375 25.15V28.325C54.5917 28.6417 53.8167 28.875 53.05 29.025C52.2833 29.175 51.425 29.25 50.475 29.25C48.6417 29.25 47.125 28.875 45.925 28.125C44.7417 27.3583 43.8667 26.2917 43.3 24.925C42.7333 23.5417 42.45 21.9333 42.45 20.1C42.45 18.75 42.6333 17.5167 43 16.4C43.3667 15.2667 43.9 14.2917 44.6 13.475C45.3167 12.6583 46.1917 12.025 47.225 11.575C48.275 11.125 49.475 10.9 50.825 10.9C51.7083 10.9 52.5917 11.0167 53.475 11.25C54.375 11.4667 55.2333 11.7667 56.05 12.15L54.825 15.225C54.1583 14.9083 53.4833 14.6333 52.8 14.4C52.1333 14.1667 51.475 14.05 50.825 14.05ZM71.268 22.15C71.268 23.2833 71.1096 24.2917 70.793 25.175C70.493 26.0583 70.0513 26.8083 69.468 27.425C68.9013 28.025 68.2096 28.4833 67.393 28.8C66.5763 29.1 65.6513 29.25 64.618 29.25C63.668 29.25 62.7846 29.1 61.968 28.8C61.168 28.4833 60.4763 28.025 59.893 27.425C59.3096 26.8083 58.8513 26.0583 58.518 25.175C58.2013 24.2917 58.043 23.2833 58.043 22.15C58.043 20.6333 58.3096 19.3583 58.843 18.325C59.3763 17.275 60.143 16.475 61.143 15.925C62.143 15.375 63.3263 15.1 64.693 15.1C65.9763 15.1 67.1096 15.375 68.093 15.925C69.0763 16.475 69.8513 17.275 70.418 18.325C70.9846 19.3583 71.268 20.6333 71.268 22.15ZM61.843 22.15C61.843 23.05 61.9346 23.8083 62.118 24.425C62.318 25.025 62.6263 25.4833 63.043 25.8C63.4596 26.1 64.0013 26.25 64.668 26.25C65.3346 26.25 65.868 26.1 66.268 25.8C66.6846 25.4833 66.9846 25.025 67.168 24.425C67.368 23.8083 67.468 23.05 67.468 22.15C67.468 21.25 67.368 20.5 67.168 19.9C66.9846 19.3 66.6846 18.85 66.268 18.55C65.8513 18.25 65.3096 18.1 64.643 18.1C63.6596 18.1 62.943 18.4417 62.493 19.125C62.0596 19.7917 61.843 20.8 61.843 22.15ZM90.3715 15.1C91.9215 15.1 93.0882 15.5 93.8715 16.3C94.6715 17.0833 95.0715 18.35 95.0715 20.1V29H91.3465V21.025C91.3465 20.0417 91.1798 19.3083 90.8465 18.825C90.5132 18.325 89.9965 18.075 89.2965 18.075C88.3132 18.075 87.6132 18.425 87.1965 19.125C86.7798 19.825 86.5715 20.8333 86.5715 22.15V29H82.8465V21.025C82.8465 20.375 82.7715 19.8333 82.6215 19.4C82.4715 18.9667 82.2465 18.6417 81.9465 18.425C81.6465 18.1917 81.2632 18.075 80.7965 18.075C80.1132 18.075 79.5715 18.25 79.1715 18.6C78.7715 18.95 78.4882 19.4583 78.3215 20.125C78.1548 20.7917 78.0715 21.6083 78.0715 22.575V29H74.3465V15.35H77.1965L77.6965 17.1H77.8965C78.1798 16.6333 78.5298 16.2583 78.9465 15.975C79.3632 15.675 79.8215 15.4583 80.3215 15.325C80.8382 15.175 81.3548 15.1 81.8715 15.1C82.8715 15.1 83.7215 15.2667 84.4215 15.6C85.1215 15.9167 85.6548 16.4167 86.0215 17.1H86.3465C86.7632 16.4 87.3382 15.8917 88.0715 15.575C88.8215 15.2583 89.5882 15.1 90.3715 15.1ZM106.507 15.1C108.04 15.1 109.282 15.7 110.232 16.9C111.182 18.0833 111.657 19.8333 111.657 22.15C111.657 23.7 111.432 25.0083 110.982 26.075C110.532 27.125 109.915 27.9167 109.132 28.45C108.349 28.9833 107.44 29.25 106.407 29.25C105.757 29.25 105.19 29.1667 104.707 29C104.24 28.8333 103.84 28.6167 103.507 28.35C103.174 28.0833 102.882 27.8 102.632 27.5H102.432C102.499 27.8167 102.549 28.15 102.582 28.5C102.615 28.8333 102.632 29.1667 102.632 29.5V35H98.907V15.35H101.932L102.457 17.125H102.632C102.882 16.7583 103.182 16.425 103.532 16.125C103.882 15.8083 104.299 15.5583 104.782 15.375C105.282 15.1917 105.857 15.1 106.507 15.1ZM105.307 18.075C104.657 18.075 104.14 18.2083 103.757 18.475C103.374 18.7417 103.09 19.15 102.907 19.7C102.74 20.2333 102.649 20.9083 102.632 21.725V22.125C102.632 23.0083 102.715 23.7583 102.882 24.375C103.049 24.975 103.332 25.4333 103.732 25.75C104.132 26.0667 104.674 26.225 105.357 26.225C105.924 26.225 106.39 26.0667 106.757 25.75C107.124 25.4333 107.399 24.9667 107.582 24.35C107.765 23.7333 107.857 22.9833 107.857 22.1C107.857 20.7667 107.649 19.7667 107.232 19.1C106.832 18.4167 106.19 18.075 105.307 18.075ZM120.327 15.075C122.161 15.075 123.561 15.475 124.527 16.275C125.511 17.0583 126.002 18.2667 126.002 19.9V29H123.402L122.677 27.15H122.577C122.194 27.6333 121.794 28.0333 121.377 28.35C120.977 28.6667 120.511 28.8917 119.977 29.025C119.461 29.175 118.819 29.25 118.052 29.25C117.252 29.25 116.527 29.1 115.877 28.8C115.244 28.4833 114.744 28.0083 114.377 27.375C114.011 26.725 113.827 25.9083 113.827 24.925C113.827 23.475 114.336 22.4083 115.352 21.725C116.369 21.025 117.894 20.6417 119.927 20.575L122.302 20.5V19.9C122.302 19.1833 122.111 18.6583 121.727 18.325C121.361 17.9917 120.844 17.825 120.177 17.825C119.511 17.825 118.861 17.925 118.227 18.125C117.594 18.3083 116.961 18.5417 116.327 18.825L115.102 16.3C115.836 15.9167 116.644 15.6167 117.527 15.4C118.427 15.1833 119.361 15.075 120.327 15.075ZM120.852 22.725C119.652 22.7583 118.819 22.975 118.352 23.375C117.886 23.775 117.652 24.3 117.652 24.95C117.652 25.5167 117.819 25.925 118.152 26.175C118.486 26.4083 118.919 26.525 119.452 26.525C120.252 26.525 120.927 26.2917 121.477 25.825C122.027 25.3417 122.302 24.6667 122.302 23.8V22.675L120.852 22.725ZM137.565 15.1C139.032 15.1 140.207 15.5 141.09 16.3C141.974 17.0833 142.415 18.35 142.415 20.1V29H138.69V21.025C138.69 20.0417 138.515 19.3083 138.165 18.825C137.815 18.325 137.257 18.075 136.49 18.075C135.357 18.075 134.582 18.4667 134.165 19.25C133.749 20.0167 133.54 21.125 133.54 22.575V29H129.815V15.35H132.665L133.165 17.1H133.365C133.665 16.6333 134.032 16.2583 134.465 15.975C134.899 15.675 135.382 15.4583 135.915 15.325C136.449 15.175 136.999 15.1 137.565 15.1ZM144.296 15.35H148.371L150.946 23.025C151.029 23.275 151.096 23.525 151.146 23.775C151.213 24.025 151.263 24.2833 151.296 24.55C151.346 24.8167 151.379 25.1 151.396 25.4H151.471C151.521 24.9667 151.588 24.5583 151.671 24.175C151.771 23.775 151.879 23.3917 151.996 23.025L154.521 15.35H158.521L152.746 30.75C152.396 31.6833 151.938 32.4667 151.371 33.1C150.821 33.7333 150.179 34.2083 149.446 34.525C148.713 34.8417 147.913 35 147.046 35C146.629 35 146.263 34.975 145.946 34.925C145.646 34.8917 145.379 34.85 145.146 34.8V31.85C145.329 31.8833 145.546 31.9167 145.796 31.95C146.063 31.9833 146.338 32 146.621 32C147.138 32 147.579 31.8917 147.946 31.675C148.329 31.4583 148.646 31.1583 148.896 30.775C149.146 30.4083 149.346 30.0083 149.496 29.575L149.721 28.9L144.296 15.35Z" fill="#292930"/>
<rect x="19.6945" y="2.35352" width="32.9123" height="8.84739" rx="4.42369" transform="rotate(60 19.6945 2.35352)" fill="#5956E8"/>
<rect width="32.9123" height="8.84739" rx="4.42369" transform="matrix(-0.5 0.866025 0.866025 0.5 16.4562 2)" fill="#474747"/>
<rect x="1" y="25" width="34" height="9" rx="4.5" fill="#FF60C9"/>
</svg>
