<svg width="40" height="40" viewBox="0 0 40 40" fill="none" xmlns="http://www.w3.org/2000/svg">
<g clip-path="url(#clip0_280_261)">
<path d="M39.2701 29.4533C38.8474 27.8744 37.206 26.915 35.5333 27.2658L23.8755 29.7408C24.1049 29.1102 24.1054 28.4191 23.8769 27.7882C23.6484 27.1573 23.2055 26.6267 22.6255 26.2892L15.8677 22.3869C15.5965 22.2175 15.3418 22.0232 15.1068 21.8064C14.513 21.2931 13.774 20.6548 12.3966 20.508C11.088 20.3689 9.38491 20.6759 7.08413 21.472C7.00733 20.9841 6.75901 20.5396 6.38382 20.2184C6.00863 19.8972 5.53116 19.7204 5.03726 19.7197H2.69663C2.14733 19.7203 1.6207 19.9388 1.23228 20.3272C0.843862 20.7156 0.625376 21.2423 0.624756 21.7916V33.308C0.625376 33.8573 0.843862 34.3839 1.23228 34.7723C1.6207 35.1607 2.14733 35.3792 2.69663 35.3798H5.03022C5.57376 35.3791 6.09529 35.165 6.48262 34.7837C6.86994 34.4024 7.09211 33.8842 7.10132 33.3408C8.96538 33.0791 11.3333 34.4306 13.6287 35.7416C15.6068 36.8712 17.4927 37.9486 19.0685 37.9486C19.365 37.951 19.66 37.9081 19.9435 37.8212L37.0935 33.2259C37.8822 33.0139 38.5545 32.4975 38.9626 31.7901C39.3707 31.0827 39.4813 30.2422 39.2701 29.4533ZM5.03022 34.1298H2.69663C2.47872 34.1296 2.26979 34.043 2.11571 33.8889C1.96162 33.7348 1.87496 33.5259 1.87476 33.308V21.7916C1.87496 21.5736 1.96162 21.3647 2.11571 21.2106C2.26979 21.0565 2.47872 20.9699 2.69663 20.9697H5.03022C5.24814 20.9699 5.45706 21.0565 5.61115 21.2106C5.76524 21.3647 5.85189 21.5736 5.8521 21.7916V33.308C5.85189 33.5259 5.76524 33.7348 5.61115 33.8889C5.45706 34.043 5.24814 34.1296 5.03022 34.1298ZM36.7701 32.0205L19.6091 36.6173L19.5802 36.6259C18.3748 37.0111 16.2779 35.8142 14.2505 34.6564C11.8341 33.2752 9.3435 31.8548 7.10444 32.0783V22.7884C12.2099 20.9572 13.2662 21.8689 14.2919 22.7517C14.5857 23.0213 14.9049 23.2618 15.2451 23.4697L22.0029 27.3712C22.1853 27.4771 22.3452 27.6179 22.4732 27.7856C22.6013 27.9532 22.6951 28.1444 22.7492 28.3483C22.8034 28.5522 22.8168 28.7648 22.7889 28.9739C22.7609 29.1829 22.692 29.3845 22.5861 29.5669C22.4802 29.7494 22.3394 29.9092 22.1718 30.0373C22.0041 30.1654 21.8129 30.2591 21.609 30.3133C21.4051 30.3675 21.1926 30.3809 20.9835 30.3529C20.7744 30.3249 20.5728 30.256 20.3904 30.1502L14.7482 26.8931C14.605 26.8154 14.4372 26.7966 14.2804 26.8408C14.1236 26.885 13.9902 26.9887 13.9087 27.1298C13.8273 27.2708 13.8041 27.4381 13.8441 27.596C13.8842 27.754 13.9843 27.89 14.1232 27.9752L19.7654 31.233C20.1977 31.4832 20.6885 31.615 21.188 31.615C21.6363 31.6143 22.0783 31.5089 22.4787 31.3072C22.5081 31.3052 22.5373 31.3013 22.5662 31.2955L35.7896 28.4955C36.8294 28.2752 37.8052 28.8275 38.0607 29.7798C38.1854 30.2478 38.1196 30.746 37.8777 31.1656C37.6358 31.5851 37.2375 31.8916 36.7701 32.0181V32.0205ZM4.90522 23.2267C4.90584 23.433 4.84523 23.6348 4.73105 23.8067C4.61688 23.9785 4.45428 24.1125 4.26385 24.1919C4.07343 24.2712 3.86374 24.2922 3.66135 24.2523C3.45896 24.2124 3.27297 24.1133 3.12693 23.9676C2.9809 23.8219 2.88139 23.6361 2.84101 23.4338C2.80064 23.2315 2.8212 23.0218 2.90011 22.8312C2.97902 22.6406 3.11272 22.4777 3.28427 22.3631C3.45583 22.2486 3.65753 22.1875 3.86382 22.1877C4.13942 22.1883 4.40359 22.2979 4.5987 22.4925C4.7938 22.6872 4.90399 22.9511 4.90522 23.2267ZM17.2443 16.3603H18.3021C18.5117 17.1138 18.8124 17.8389 19.1974 18.5197L18.4498 19.2681C18.2536 19.4617 18.1347 19.7202 18.1153 19.9951C18.0958 20.27 18.1773 20.5426 18.3443 20.7619C19.0055 21.6392 19.7862 22.4197 20.6638 23.0806C20.8828 23.2481 21.1554 23.3298 21.4305 23.3105C21.7055 23.2913 21.964 23.1723 22.1576 22.9759L22.906 22.2283C23.5866 22.6134 24.3115 22.9146 25.0646 23.1252V24.183C25.0629 24.4586 25.1618 24.7254 25.3427 24.9333C25.5237 25.1413 25.7742 25.2762 26.0474 25.3127C27.1358 25.4659 28.2403 25.4659 29.3287 25.3127C29.6023 25.2763 29.8532 25.1413 30.0343 24.933C30.2155 24.7247 30.3143 24.4574 30.3123 24.1814V23.1252C31.0656 22.9153 31.7907 22.6146 32.4716 22.2298L33.2193 22.9775C33.4128 23.1738 33.6714 23.2928 33.9464 23.3121C34.2214 23.3314 34.494 23.2496 34.713 23.0822C35.5903 22.4209 36.3706 21.6398 37.031 20.7619C37.1981 20.5427 37.2797 20.2702 37.2604 19.9952C37.2411 19.7203 37.1224 19.4618 36.9263 19.2681L36.1779 18.5197C36.563 17.8392 36.8636 17.1143 37.0732 16.3611H38.1318C38.4075 16.3629 38.6743 16.2641 38.8823 16.0831C39.0903 15.9022 39.2251 15.6516 39.2615 15.3783C39.4147 14.2899 39.4147 13.1854 39.2615 12.097C39.225 11.8239 39.0901 11.5734 38.8821 11.3927C38.6741 11.2119 38.4073 11.1131 38.1318 11.115H37.0724C36.8624 10.3615 36.5615 9.63641 36.1763 8.95562L36.9248 8.20796C37.1198 8.01472 37.2381 7.75726 37.2576 7.48339C37.2771 7.20953 37.1966 6.93788 37.031 6.7189C36.3702 5.84094 35.5894 5.06014 34.7115 4.39937C34.4924 4.23193 34.2198 4.15018 33.9448 4.16945C33.6698 4.18873 33.4113 4.30771 33.2177 4.50406L32.4701 5.2525C31.7898 4.86651 31.0653 4.56456 30.3123 4.35328V3.29547C30.3141 3.01981 30.2154 2.75293 30.0347 2.54483C29.8539 2.33673 29.6034 2.20168 29.3302 2.165C28.2417 2.01336 27.1375 2.01336 26.049 2.165C25.7758 2.20184 25.5255 2.33693 25.3447 2.545C25.164 2.75307 25.0652 3.01986 25.0669 3.29547V4.35328C24.313 4.56327 23.5873 4.86418 22.906 5.24937L22.1576 4.50093C21.9639 4.30488 21.7054 4.18612 21.4304 4.16685C21.1555 4.14758 20.883 4.22913 20.6638 4.39625C19.7856 5.05797 19.0048 5.83984 18.3443 6.7189C18.1771 6.93809 18.0956 7.21071 18.115 7.48569C18.1344 7.76067 18.2534 8.01913 18.4498 8.21265L19.1974 8.96031C18.8122 9.64098 18.5115 10.3661 18.3021 11.1197H17.2443C16.9686 11.1178 16.7018 11.2165 16.4937 11.3973C16.2855 11.5781 16.1505 11.8285 16.1138 12.1017C15.9605 13.1901 15.9605 14.2946 16.1138 15.383C16.1514 15.6554 16.2868 15.9048 16.4949 16.0847C16.7029 16.2645 16.9693 16.3625 17.2443 16.3603ZM17.3388 12.3666H18.7888C18.931 12.3666 19.0689 12.3181 19.1798 12.2292C19.2908 12.1403 19.3681 12.0163 19.399 11.8775C19.6119 10.9256 19.9884 10.0179 20.5115 9.19468C20.5875 9.07474 20.6204 8.93247 20.6048 8.79132C20.5892 8.65017 20.526 8.51854 20.4255 8.41812L19.4005 7.39234C19.9594 6.66311 20.6119 6.01063 21.3412 5.45172L22.3662 6.4775C22.4666 6.57811 22.5984 6.64145 22.7397 6.65707C22.8811 6.6727 23.0235 6.63967 23.1435 6.56343C23.9667 6.04032 24.8745 5.66391 25.8263 5.45093C25.9644 5.41998 26.0879 5.34307 26.1766 5.2328C26.2653 5.12253 26.314 4.98542 26.3146 4.8439V3.39C27.2256 3.27125 28.1481 3.27125 29.0591 3.39V4.8439C29.0591 4.98606 29.1075 5.12399 29.1965 5.23491C29.2854 5.34584 29.4094 5.42314 29.5482 5.45406C30.4996 5.66579 31.407 6.04088 32.2302 6.56265C32.3502 6.63889 32.4927 6.67192 32.634 6.65629C32.7753 6.64067 32.9071 6.57733 33.0076 6.47672L34.0333 5.45093C34.7621 6.01008 35.4143 6.66253 35.9732 7.39156L34.9482 8.41734C34.8478 8.51776 34.7845 8.64938 34.7689 8.79054C34.7533 8.93169 34.7862 9.07396 34.8623 9.1939C35.3854 10.0166 35.7618 10.9238 35.9748 11.8752C36.0058 12.0138 36.0832 12.1377 36.1941 12.2264C36.305 12.3152 36.4429 12.3635 36.5849 12.3634H38.0349C38.1547 13.2744 38.1547 14.197 38.0349 15.108H36.5841C36.4422 15.1081 36.3046 15.1565 36.1938 15.2452C36.083 15.334 36.0058 15.4578 35.9748 15.5962C35.762 16.5489 35.3856 17.4574 34.8623 18.2814C34.7862 18.4013 34.7533 18.5436 34.7689 18.6848C34.7845 18.8259 34.8478 18.9575 34.9482 19.058L35.974 20.0837C35.4146 20.8126 34.7622 21.465 34.0333 22.0244L33.0076 20.9994C32.9071 20.8991 32.7754 20.836 32.6342 20.8205C32.4931 20.805 32.3509 20.8381 32.231 20.9142C31.4076 21.4375 30.4996 21.8139 29.5474 22.0267C29.4089 22.0578 29.2851 22.135 29.1964 22.2458C29.1076 22.3565 29.0592 22.4942 29.0591 22.6361V24.0869C28.1481 24.2056 27.2256 24.2056 26.3146 24.0869V22.6361C26.3147 22.494 26.2663 22.3562 26.1776 22.2453C26.0888 22.1344 25.9649 22.057 25.8263 22.0259C24.8742 21.8138 23.9663 21.4374 23.1435 20.9134C23.0235 20.8372 22.8811 20.8042 22.7397 20.8198C22.5984 20.8354 22.4666 20.8988 22.3662 20.9994L21.3412 22.0252C20.6119 21.4662 19.9594 20.8138 19.4005 20.0845L20.4255 19.0627C20.526 18.9622 20.5892 18.8306 20.6048 18.6895C20.6204 18.5483 20.5875 18.406 20.5115 18.2861C19.9882 17.4629 19.6118 16.5552 19.399 15.6033C19.3681 15.4645 19.2908 15.3404 19.1798 15.2515C19.0689 15.1626 18.931 15.1142 18.7888 15.1142H17.3388C17.219 14.2036 17.219 13.2811 17.3388 12.3705V12.3666ZM27.6873 20.0002C28.9251 20.0002 30.1351 19.6331 31.1643 18.9454C32.1936 18.2577 32.9957 17.2802 33.4694 16.1366C33.9431 14.993 34.0671 13.7346 33.8256 12.5206C33.5841 11.3065 32.988 10.1913 32.1127 9.31606C31.2375 8.44078 30.1223 7.84471 28.9082 7.60322C27.6942 7.36173 26.4358 7.48567 25.2922 7.95937C24.1486 8.43307 23.1711 9.23525 22.4834 10.2645C21.7957 11.2937 21.4287 12.5037 21.4287 13.7416C21.4305 15.4009 22.0905 16.9917 23.2638 18.165C24.4371 19.3383 26.0279 19.9983 27.6873 20.0002ZM27.6873 8.73296C28.6779 8.73296 29.6462 9.02671 30.4699 9.57706C31.2935 10.1274 31.9355 10.9097 32.3146 11.8249C32.6937 12.7401 32.7929 13.7471 32.5996 14.7187C32.4063 15.6903 31.9293 16.5827 31.2289 17.2832C30.5284 17.9836 29.636 18.4607 28.6644 18.6539C27.6928 18.8472 26.6857 18.748 25.7705 18.3689C24.8553 17.9898 24.0731 17.3478 23.5228 16.5242C22.9724 15.7005 22.6787 14.7322 22.6787 13.7416C22.6793 12.4131 23.2071 11.1392 24.1461 10.1995C25.0852 9.25987 26.3588 8.73129 27.6873 8.72984V8.73296ZM25.088 14.333C25.03 14.2749 24.984 14.206 24.9526 14.1301C24.9212 14.0543 24.9051 13.973 24.9052 13.8909C24.9052 13.8088 24.9214 13.7275 24.9528 13.6517C24.9843 13.5759 25.0304 13.507 25.0884 13.449C25.1465 13.391 25.2154 13.345 25.2913 13.3136C25.3671 13.2822 25.4484 13.2661 25.5305 13.2661C25.6126 13.2661 25.6939 13.2823 25.7697 13.3138C25.8455 13.3452 25.9144 13.3913 25.9724 13.4494L26.9763 14.4533L29.3748 11.7009C29.4872 11.59 29.6374 11.5257 29.7953 11.521C29.9532 11.5163 30.107 11.5716 30.2258 11.6758C30.3446 11.7799 30.4195 11.9251 30.4356 12.0823C30.4516 12.2394 30.4076 12.3968 30.3123 12.5228L27.4763 15.7759C27.42 15.8406 27.351 15.8929 27.2736 15.9298C27.1962 15.9666 27.112 15.9871 27.0263 15.99H27.0052C26.9231 15.9901 26.8418 15.9739 26.7659 15.9426C26.6901 15.9112 26.6211 15.8652 26.563 15.8072L25.088 14.333Z" fill="black"/>
</g>
<defs>
<clipPath id="clip0_280_261">
<rect width="40" height="40" fill="white" transform="translate(-0.000244141)"/>
</clipPath>
</defs>
</svg>
