<svg width="40" height="40" viewBox="0 0 40 40" fill="none" xmlns="http://www.w3.org/2000/svg">
<path d="M18.7494 1.25236C18.4376 1.25236 18.1259 1.45788 18.1259 1.876V3.12563C18.1259 3.9595 19.3753 3.9595 19.3753 3.12563V1.87363C19.3753 1.45788 19.0635 1.25236 18.7494 1.25236ZM10.5395 5.79497L11.4229 6.67845C12.0133 7.26902 12.8967 6.38553 12.3062 5.79497L11.4229 4.91149C11.3632 4.84714 11.2902 4.7965 11.2091 4.76306C11.128 4.72961 11.0405 4.71417 10.9528 4.71778C10.4828 4.74377 10.0978 5.35323 10.5395 5.79497ZM26.5459 4.71778C26.4583 4.71417 26.3708 4.72961 26.2897 4.76306C26.2085 4.7965 26.1356 4.84714 26.0759 4.91149L25.1926 5.79497C24.6021 6.38553 25.4878 7.26902 26.0759 6.67845L26.9616 5.79497C27.4033 5.35323 27.016 4.74377 26.5459 4.71778ZM13.2462 29.6065C14.5476 30.464 16.0096 30.986 17.5 31.1726V38.1247C17.5 38.472 17.7834 38.7531 18.1282 38.7507H23.1212C23.2036 38.751 23.2853 38.7351 23.3615 38.7038C23.4377 38.6724 23.507 38.6264 23.5653 38.5682C23.6237 38.5101 23.67 38.441 23.7016 38.3648C23.7332 38.2887 23.7495 38.2071 23.7495 38.1247V29.9939C23.7495 29.9702 23.74 29.9466 23.7377 29.923C24.177 29.6726 24.595 29.3844 24.9989 29.0608V38.1247C24.9989 38.472 25.2823 38.7531 25.6272 38.7507H30.6202C30.7026 38.751 30.7842 38.7351 30.8604 38.7038C30.9366 38.6724 31.0059 38.6264 31.0643 38.5682C31.1227 38.5101 31.169 38.441 31.2006 38.3648C31.2322 38.2887 31.2484 38.2071 31.2484 38.1247L31.2508 21.2512C31.2508 21.1688 31.2345 21.0872 31.2029 21.0111C31.1713 20.935 31.125 20.8659 31.0666 20.8077C31.0083 20.7495 30.939 20.7035 30.8628 20.6722C30.7866 20.6408 30.7049 20.6249 30.6225 20.6252H28.7354C28.6536 19.3132 28.3138 18.0303 27.7355 16.8499C27.1571 15.6695 26.3516 14.6148 25.365 13.7463C25.528 13.203 25.6248 12.5841 25.6248 11.8494C25.6248 8.41471 22.8709 5.00126 18.7518 5.00126C14.6303 5.00126 11.8787 8.41471 11.8787 11.8494C11.8787 12.5841 11.9732 13.2006 12.1338 13.7439C10.3245 15.3384 9.15233 17.5331 8.83332 19.9237C8.5143 22.3143 9.06993 24.7397 10.3978 26.7529L2.2706 33.2609C0.853471 34.4089 0.983374 36.5515 2.21863 37.7846C3.45389 39.02 5.59611 39.15 6.74162 37.735L13.2462 29.6065ZM18.7494 6.25089C22.1505 6.25089 24.373 9.08559 24.373 11.8494C24.373 13.8054 23.5936 14.7337 22.6796 15.6503C22.2237 16.1086 21.7301 16.5598 21.3238 17.1456C20.9858 17.6237 20.7627 18.1734 20.672 18.7519H19.3729V16.4653L21.0499 14.8282C21.1401 14.7423 21.2027 14.6315 21.2296 14.5098C21.2565 14.3881 21.2465 14.2612 21.2008 14.1452C21.1552 14.0293 21.076 13.9296 20.9733 13.859C20.8707 13.7883 20.7493 13.7499 20.6247 13.7487C20.541 13.7475 20.4579 13.7632 20.3804 13.7949C20.3029 13.8266 20.2326 13.8735 20.1736 13.9329L18.747 15.3267L17.3228 13.9329C17.2635 13.8733 17.1928 13.8263 17.1148 13.7946C17.0369 13.763 16.9534 13.7473 16.8693 13.7487C16.7444 13.7492 16.6225 13.7873 16.5195 13.8579C16.4164 13.9285 16.337 14.0285 16.2914 14.1449C16.2459 14.2612 16.2363 14.3885 16.264 14.5104C16.2916 14.6322 16.3552 14.743 16.4466 14.8282L18.1235 16.47V18.7472H16.8268C16.7339 18.17 16.511 17.6216 16.175 17.1432C15.7711 16.5574 15.2774 16.1038 14.8192 15.6479C13.9076 14.7314 13.1258 13.7487 13.1258 11.8447C13.1258 9.08323 15.3459 6.25089 18.7494 6.25089ZM18.7494 7.50052C17.4976 7.50052 16.3049 8.03911 15.4758 8.97692C14.8688 9.60292 15.8655 10.4817 16.4111 9.80371C17.004 9.13283 17.8542 8.75015 18.7494 8.75015C19.5997 8.76905 19.5997 7.48162 18.7494 7.50052ZM15.0011 11.2329C14.9147 11.2253 14.8276 11.2359 14.7454 11.2638C14.6633 11.2917 14.5878 11.3364 14.5238 11.3951C14.4599 11.4537 14.4088 11.525 14.3739 11.6044C14.3389 11.6839 14.3209 11.7697 14.3209 11.8565C14.3209 11.9433 14.3389 12.0291 14.3739 12.1086C14.4088 12.188 14.4599 12.2593 14.5238 12.318C14.5878 12.3766 14.6633 12.4213 14.7454 12.4492C14.8276 12.4771 14.9147 12.4877 15.0011 12.4801C15.1601 12.4704 15.3095 12.4003 15.4186 12.2842C15.5278 12.1681 15.5886 12.0147 15.5886 11.8553C15.5886 11.696 15.5278 11.5426 15.4186 11.4265C15.3095 11.3104 15.1601 11.2427 15.0011 11.2329ZM8.75394 12.5014C7.9202 12.5014 7.9202 13.751 8.75394 13.751H10.0034C10.8371 13.751 10.8371 12.499 10.0034 12.499L8.75394 12.5014ZM27.5025 12.5014C26.6688 12.5014 26.6688 13.751 27.5025 13.751H28.7519C29.5857 13.751 29.5857 12.499 28.7519 12.499L27.5025 12.5014ZM33.1285 13.118C33.0461 13.1176 32.9645 13.1336 32.8882 13.1649C32.812 13.1962 32.7428 13.2423 32.6844 13.3005C32.626 13.3586 32.5797 13.4277 32.5481 13.5038C32.5165 13.5799 32.5002 13.6615 32.5002 13.7439V38.1271C32.5002 38.4744 32.7837 38.7555 33.1285 38.7531H38.1238C38.2898 38.7531 38.449 38.6871 38.5664 38.5698C38.6838 38.4524 38.7497 38.2931 38.7497 38.1271V13.7487C38.7501 13.6663 38.7341 13.5846 38.7028 13.5084C38.6715 13.4322 38.6254 13.3629 38.5673 13.3045C38.5091 13.2461 38.44 13.1998 38.3639 13.1682C38.2878 13.1366 38.2062 13.1203 38.1238 13.1203L33.1285 13.118ZM33.7497 14.3747H37.5003V37.494H33.7497V14.3747ZM12.6605 14.9605C12.8872 15.3456 13.147 15.6786 13.4116 15.9763C12.0536 17.3974 11.3071 19.2946 11.3325 21.2602C11.358 23.2259 12.1532 25.1031 13.5475 26.4886C14.9418 27.8742 16.8238 28.6575 18.7893 28.6702C20.7547 28.683 22.6468 27.9241 24.0589 26.5568C25.4606 25.1566 26.2509 23.2583 26.2571 21.2769C26.2633 19.2955 25.4849 17.3923 24.092 15.9834C24.3565 15.6857 24.6116 15.3479 24.8383 14.9629L24.9399 15.0574C25.7789 15.8644 26.4486 16.8307 26.9099 17.8997C27.3711 18.9687 27.6145 20.119 27.6259 21.2832C27.6373 22.4474 27.4165 23.6023 26.9764 24.6801C26.5362 25.758 25.8856 26.7372 25.0625 27.5606C24.2395 28.3839 23.2605 29.0348 22.1829 29.4753C21.1053 29.9157 19.9507 30.1368 18.7866 30.1256C17.6226 30.1144 16.4725 29.8711 15.4035 29.41C14.3346 28.949 13.3684 28.2793 12.5613 27.4403C10.9221 25.7973 10.0016 23.571 10.0016 21.25C10.0016 18.929 10.9221 16.7027 12.5613 15.0597C12.5967 15.0243 12.6227 14.9936 12.6605 14.9605ZM14.2831 16.881C14.6185 17.2188 14.9279 17.5354 15.1499 17.8566C15.3436 18.1354 15.4853 18.4165 15.5609 18.759C14.7885 18.8393 14.8216 20.0016 15.627 20.0016V21.8748C15.627 22.6874 16.1513 23.3796 16.8835 23.6371V24.3764C16.8708 24.63 16.9097 24.8836 16.998 25.1217C17.0862 25.3598 17.2219 25.5774 17.3969 25.7614C17.5718 25.9454 17.7824 26.0919 18.0157 26.192C18.249 26.2921 18.5002 26.3438 18.7541 26.3438C19.008 26.3438 19.2592 26.2921 19.4925 26.192C19.7259 26.0919 19.9364 25.9454 20.1113 25.7614C20.2863 25.5774 20.422 25.3598 20.5103 25.1217C20.5985 24.8836 20.6375 24.63 20.6247 24.3764V23.6371C20.9904 23.5096 21.3074 23.2714 21.5317 22.9557C21.756 22.6399 21.8765 22.2622 21.8765 21.8748V20.0016C22.6819 20.0016 22.6984 18.8346 21.9474 18.7566C22.023 18.4141 22.1599 18.1354 22.356 17.8566C22.5756 17.5354 22.885 17.2188 23.2204 16.8834C24.3709 18.0593 25.0112 19.6416 25.0024 21.2869C24.9936 22.9321 24.3363 24.5075 23.1732 25.671C21.9997 26.843 20.409 27.5013 18.7506 27.5013C17.0921 27.5013 15.5015 26.843 14.328 25.671C13.1677 24.506 12.5124 22.9312 12.5035 21.2868C12.4947 19.6425 13.1331 18.0608 14.2807 16.8834L14.2831 16.881ZM16.8764 19.9992H20.6271V21.8748C20.6284 21.9571 20.6131 22.0387 20.5822 22.115C20.5513 22.1912 20.5055 22.2605 20.4473 22.3186C20.3891 22.3768 20.3199 22.4227 20.2437 22.4536C20.1674 22.4845 20.0858 22.4997 20.0035 22.4984H17.5C17.4179 22.4991 17.3365 22.4834 17.2606 22.4523C17.1847 22.4211 17.1157 22.3752 17.0577 22.3172C16.9996 22.2592 16.9537 22.1902 16.9226 22.1142C16.8915 22.0383 16.8758 21.9569 16.8764 21.8748V20.0016V19.9992ZM28.7354 21.8748H30.0014V37.494H26.2507V27.8749C27.7223 26.2064 28.5965 24.0954 28.7354 21.8748ZM18.1306 23.7504H19.3753V24.3764C19.3766 24.4585 19.3614 24.54 19.3306 24.616C19.2999 24.6921 19.2542 24.7613 19.1963 24.8194C19.1384 24.8775 19.0695 24.9235 18.9935 24.9545C18.9176 24.9855 18.8362 25.001 18.7541 25.0001C18.6722 25.0007 18.5909 24.985 18.5151 24.9538C18.4393 24.9227 18.3705 24.8767 18.3126 24.8187C18.2548 24.7606 18.2091 24.6916 18.1783 24.6157C18.1474 24.5397 18.132 24.4584 18.1329 24.3764L18.1306 23.7504ZM11.1583 27.7521C11.3237 27.9458 11.489 28.1419 11.6756 28.3238C11.8622 28.5104 12.0558 28.6781 12.2519 28.8458L5.77089 36.9483C5.14263 37.7161 3.86486 37.6523 3.10906 36.8964C2.35326 36.1405 2.2824 34.8554 3.0571 34.2294L11.1583 27.7521ZM22.2426 30.627L22.5024 30.5277V37.494H18.7494V31.2577C19.9327 31.2577 21.116 31.0451 22.2402 30.627H22.2426Z" fill="#282938"/>
</svg>
