<svg width="40" height="40" viewBox="0 0 40 40" fill="none" xmlns="http://www.w3.org/2000/svg">
<path d="M11.9935 16.9118C11.9935 17.0775 12.0594 17.2365 12.1766 17.3537C12.2938 17.4709 12.4527 17.5368 12.6185 17.5368H16.276C16.4418 17.5368 16.6007 17.4709 16.7179 17.3537C16.8352 17.2365 16.901 17.0775 16.901 16.9118V13.823C17.7186 13.6756 18.4584 13.2456 18.9912 12.6081C19.524 11.9707 19.8159 11.1663 19.8159 10.3355C19.8159 9.50474 19.524 8.70037 18.9912 8.06292C18.4584 7.42546 17.7186 6.99546 16.901 6.84803V3.75928C16.901 3.59352 16.8352 3.43455 16.7179 3.31734C16.6007 3.20013 16.4418 3.13428 16.276 3.13428H5.25038C4.52107 3.13494 3.82183 3.42495 3.30613 3.94065C2.79043 4.45635 2.50042 5.15559 2.49976 5.8849V16.9118C2.49976 17.0775 2.5656 17.2365 2.68281 17.3537C2.80002 17.4709 2.959 17.5368 3.12476 17.5368H6.78288C6.94864 17.5368 7.10761 17.4709 7.22482 17.3537C7.34203 17.2365 7.40788 17.0775 7.40788 16.9118C7.41781 16.3102 7.66374 15.7367 8.09265 15.3148C8.52155 14.8929 9.09908 14.6565 9.70069 14.6565C10.3023 14.6565 10.8798 14.8929 11.3087 15.3148C11.7376 15.7367 11.9836 16.3102 11.9935 16.9118ZM6.21226 16.2868H3.74976V5.8849C3.75042 5.48728 3.90866 5.10613 4.18983 4.82497C4.47099 4.54381 4.85213 4.38556 5.24976 4.3849H15.651V7.4174C15.651 7.58316 15.7169 7.74213 15.8341 7.85934C15.9513 7.97655 16.1102 8.0424 16.276 8.0424C16.8775 8.05233 17.4511 8.29826 17.873 8.72717C18.2948 9.15608 18.5313 9.7336 18.5313 10.3352C18.5313 10.9368 18.2948 11.5144 17.873 11.9433C17.4511 12.3722 16.8775 12.6181 16.276 12.628C16.1102 12.628 15.9513 12.6939 15.8341 12.8111C15.7169 12.9283 15.651 13.0873 15.651 13.253V16.2868H13.1885C13.0358 15.4734 12.6036 14.739 11.9667 14.2105C11.3298 13.6821 10.5283 13.3928 9.70069 13.3928C8.87311 13.3928 8.07155 13.6821 7.43466 14.2105C6.79776 14.739 6.36559 15.4734 6.21288 16.2868H6.21226Z" fill="#282938"/>
<path d="M34.7498 9.71045H23.7229C23.5572 9.71045 23.3982 9.7763 23.281 9.89351C23.1638 10.0107 23.0979 10.1697 23.0979 10.3354V13.9936C23.0979 14.1593 23.1638 14.3183 23.281 14.4355C23.3982 14.5527 23.5572 14.6186 23.7229 14.6186C24.3245 14.6285 24.898 14.8744 25.3199 15.3033C25.7418 15.7322 25.9782 16.3098 25.9782 16.9114C25.9782 17.513 25.7418 18.0905 25.3199 18.5194C24.898 18.9483 24.3245 19.1943 23.7229 19.2042C23.5572 19.2042 23.3982 19.27 23.281 19.3873C23.1638 19.5045 23.0979 19.6634 23.0979 19.8292V22.4629H20.6342C20.4867 21.6454 20.0567 20.9055 19.4193 20.3728C18.7818 19.84 17.9775 19.5481 17.1467 19.5481C16.3159 19.5481 15.5115 19.84 14.8741 20.3728C14.2366 20.9055 13.8066 21.6454 13.6592 22.4629H10.571C10.4053 22.4629 10.2463 22.5288 10.1291 22.646C10.0119 22.7632 9.94604 22.9222 9.94604 23.0879V34.1148C9.94687 34.8439 10.2369 35.5429 10.7524 36.0585C11.268 36.574 11.967 36.864 12.696 36.8648H34.7498C35.479 36.8642 36.1781 36.5742 36.6938 36.0587C37.2095 35.5431 37.4996 34.844 37.5004 34.1148V12.4604C37.4996 11.7314 37.2096 11.0324 36.694 10.5168C36.1785 10.0013 35.4795 9.71128 34.7504 9.71045H34.7498ZM27.2654 16.9123C27.2645 16.0813 26.9719 15.277 26.4388 14.6396C25.9056 14.0021 25.1657 13.572 24.3479 13.4242V10.9617H34.7485C35.1463 10.9622 35.5276 11.1204 35.8089 11.4015C36.0902 11.6827 36.2485 12.064 36.2492 12.4617V22.4623H33.216C33.0503 22.4623 32.8913 22.5282 32.7741 22.6454C32.6569 22.7626 32.591 22.9216 32.591 23.0873C32.5811 23.6889 32.3352 24.2624 31.9063 24.6843C31.4774 25.1062 30.8999 25.3426 30.2982 25.3426C29.6966 25.3426 29.1191 25.1062 28.6902 24.6843C28.2613 24.2624 28.0154 23.6889 28.0054 23.0873C28.0054 22.9216 27.9396 22.7626 27.8224 22.6454C27.7052 22.5282 27.5462 22.4623 27.3804 22.4623H24.3479V20.3998C25.1656 20.252 25.9054 19.822 26.4386 19.1847C26.9717 18.5474 27.2643 17.7432 27.2654 16.9123ZM11.1967 34.1148V23.7129H14.2298C14.3956 23.7129 14.5545 23.6471 14.6717 23.5299C14.7889 23.4127 14.8548 23.2537 14.8548 23.0879C14.8548 22.4799 15.0963 21.8968 15.5263 21.4669C15.9562 21.037 16.5393 20.7954 17.1473 20.7954C17.7553 20.7954 18.3384 21.037 18.7683 21.4669C19.1983 21.8968 19.4398 22.4799 19.4398 23.0879C19.4398 23.2537 19.5056 23.4127 19.6229 23.5299C19.7401 23.6471 19.899 23.7129 20.0648 23.7129H23.0979V26.1767C22.2803 26.3241 21.5405 26.7541 21.0077 27.3916C20.475 28.029 20.1831 28.8334 20.1831 29.6642C20.1831 30.495 20.475 31.2994 21.0077 31.9368C21.5405 32.5743 22.2803 33.0043 23.0979 33.1517V35.6148H12.6967C12.299 35.6142 11.9179 35.4559 11.6367 35.1748C11.3556 34.8936 11.1973 34.5124 11.1967 34.1148ZM34.7492 35.6148H24.3485V32.5823C24.3485 32.4166 24.2827 32.2576 24.1655 32.1404C24.0483 32.0232 23.8893 31.9573 23.7235 31.9573C23.1155 31.9573 22.5323 31.7158 22.1023 31.2858C21.6723 30.8558 21.4307 30.2726 21.4307 29.6645C21.4307 29.0564 21.6723 28.4732 22.1023 28.0432C22.5323 27.6133 23.1155 27.3717 23.7235 27.3717C23.8893 27.3717 24.0483 27.3058 24.1655 27.1886C24.2827 27.0714 24.3485 26.9125 24.3485 26.7467V24.1117H26.811C26.9581 24.9297 27.388 25.6699 28.0256 26.2031C28.6631 26.7362 29.4678 27.0283 30.2989 27.0283C31.1299 27.0283 31.9346 26.7362 32.5721 26.2031C33.2097 25.6699 33.6396 24.9297 33.7867 24.1117H36.2498V34.1148C36.2491 34.5124 36.0909 34.8936 35.8097 35.1748C35.5286 35.4559 35.1468 35.6142 34.7492 35.6148Z" fill="#282938"/>
</svg>
