<svg width="32" height="40" viewBox="0 0 32 40" fill="none" xmlns="http://www.w3.org/2000/svg">
<path d="M29.7498 11.9165C30.7835 11.9165 31.6248 11.0753 31.6248 10.0415V2.5415C31.6248 1.50775 30.7835 0.666504 29.7498 0.666504H20.9998C19.966 0.666504 19.1248 1.50775 19.1248 2.5415V3.7915C17.746 3.7915 16.6248 4.91275 16.6248 6.2915C16.6248 7.67025 17.746 8.7915 19.1248 8.7915V11.9165H24.1248V10.6665C24.1248 9.97713 24.6854 9.4165 25.3748 9.4165C26.0641 9.4165 26.6248 9.97713 26.6248 10.6665V11.9165H29.7498ZM25.3748 8.1665C23.996 8.1665 22.8748 9.28775 22.8748 10.6665H20.3748V7.5415H19.1248C18.4354 7.5415 17.8748 6.98088 17.8748 6.2915C17.8748 5.60213 18.4354 5.0415 19.1248 5.0415H20.3748V2.5415C20.3748 2.19713 20.6548 1.9165 20.9998 1.9165H29.7498C30.0948 1.9165 30.3748 2.19713 30.3748 2.5415V10.0415C30.3748 10.3859 30.0948 10.6665 29.7498 10.6665H27.8748C27.8748 9.28775 26.7535 8.1665 25.3748 8.1665ZM12.8748 9.92574H14.1248V4.30074H12.4491C5.79165 4.30074 0.374774 9.71762 0.374774 16.3751C0.371692 18.1641 0.767635 19.9312 1.53377 21.5478C2.2999 23.1644 3.41693 24.5898 4.80352 25.7201L7.24977 27.722V29.4164C6.88525 29.5449 6.56943 29.783 6.34562 30.0981C6.12182 30.4132 6.00101 30.7899 5.99977 31.1764C5.99977 32.0407 6.5904 32.7632 7.38727 32.9789C7.3004 33.1945 7.24977 33.4289 7.24977 33.6757C7.24977 34.502 7.7904 35.197 8.53352 35.4464C8.79227 37.6139 10.6391 39.3007 12.8748 39.3007C15.1104 39.3007 16.9573 37.6139 17.216 35.4464C17.5886 35.3231 17.913 35.0858 18.1434 34.768C18.3737 34.4503 18.4984 34.0682 18.4998 33.6757C18.4998 33.4289 18.4491 33.1945 18.3623 32.9782C18.7594 32.8719 19.1104 32.6377 19.3612 32.3119C19.612 31.9861 19.7485 31.5869 19.7498 31.1757C19.7485 30.7892 19.6277 30.4126 19.4039 30.0975C19.1801 29.7824 18.8643 29.5442 18.4998 29.4157V27.7214L20.946 25.7195C22.3327 24.5893 23.4497 23.1641 24.2159 21.5476C24.982 19.931 25.3779 18.164 25.3748 16.3751V15.5507H21.6248C21.6248 14.172 20.5035 13.0507 19.1248 13.0507C17.746 13.0507 16.6248 14.172 16.6248 15.5507H14.1248V12.4257H12.8748C12.1854 12.4257 11.6248 11.8651 11.6248 11.1757C11.6248 10.4864 12.1854 9.92574 12.8748 9.92574ZM5.59477 24.7526C4.40729 23.7848 3.43976 22.575 2.7567 21.2038C2.07364 19.8326 1.69074 18.3316 1.63352 16.8007H6.62477V15.5507C6.62477 14.8614 7.1854 14.3007 7.87477 14.3007C8.56415 14.3007 9.12477 14.8614 9.12477 15.5507V16.8007H12.8748V19.3007C11.496 19.3007 10.3748 20.422 10.3748 21.8007C10.3748 23.1795 11.496 24.3007 12.8748 24.3007V29.3007H8.49977V27.1295L5.59477 24.7526ZM12.8748 38.0507C12.1548 38.0496 11.4572 37.8003 10.8995 37.345C10.3418 36.8896 9.95805 36.2559 9.8129 35.5507H15.9366C15.7915 36.2559 15.4078 36.8896 14.8501 37.345C14.2924 37.8003 13.5948 38.0496 12.8748 38.0507ZM16.6248 34.3007H9.12477C8.96385 34.2935 8.8119 34.2245 8.70057 34.1081C8.58924 33.9917 8.52711 33.8368 8.52711 33.6757C8.52711 33.5147 8.58924 33.3598 8.70057 33.2434C8.8119 33.1269 8.96385 33.0579 9.12477 33.0507H16.6248C16.7857 33.0579 16.9376 33.1269 17.049 33.2434C17.1603 33.3598 17.2224 33.5147 17.2224 33.6757C17.2224 33.8368 17.1603 33.9917 17.049 34.1081C16.9376 34.2245 16.7857 34.2935 16.6248 34.3007ZM17.8748 31.8007H7.87477C7.71385 31.7935 7.5619 31.7245 7.45057 31.6081C7.33924 31.4917 7.27711 31.3368 7.27711 31.1757C7.27711 31.0147 7.33924 30.8598 7.45057 30.7434C7.5619 30.6269 7.71385 30.5579 7.87477 30.5507H17.8748C18.0357 30.5579 18.1876 30.6269 18.299 30.7434C18.4103 30.8598 18.4724 31.0147 18.4724 31.1757C18.4724 31.3368 18.4103 31.4917 18.299 31.6081C18.1876 31.7245 18.0357 31.7935 17.8748 31.8007ZM17.8748 16.8007V15.5507C17.8748 14.8614 18.4354 14.3007 19.1248 14.3007C19.8141 14.3007 20.3748 14.8614 20.3748 15.5507V16.8007H24.116C24.0586 18.3315 23.6757 19.8325 22.9926 21.2037C22.3096 22.5749 21.3421 23.7847 20.1548 24.7526L17.2498 27.1295V29.3007H14.1248V23.0507H12.8748C12.1854 23.0507 11.6248 22.4901 11.6248 21.8007C11.6248 21.1114 12.1854 20.5507 12.8748 20.5507H14.1248V16.8007H17.8748ZM12.8748 13.6757V15.5507H10.3748C10.3748 14.172 9.25352 13.0507 7.87477 13.0507C6.49602 13.0507 5.37477 14.172 5.37477 15.5507H1.65602C2.07852 9.96574 6.7579 5.55074 12.4498 5.55074H12.8748V8.67574C11.496 8.67574 10.3748 9.79699 10.3748 11.1757C10.3748 12.5545 11.496 13.6757 12.8748 13.6757Z" fill="#FB923C"/>
</svg>
