<svg width="48" height="155" viewBox="0 0 48 155" fill="none" xmlns="http://www.w3.org/2000/svg">
<mask id="mask0_502_59" style="mask-type:luminance" maskUnits="userSpaceOnUse" x="27" y="3" width="21" height="152">
<path fill-rule="evenodd" clip-rule="evenodd" d="M27.8207 3.43066H47.7921V154.69H27.8207V3.43066Z" fill="white"/>
</mask>
<g mask="url(#mask0_502_59)">
<path fill-rule="evenodd" clip-rule="evenodd" d="M27.8207 152.075C27.8207 144.807 32.1764 141.161 36.0144 137.941C39.5545 134.981 42.3466 132.645 42.3466 127.751C42.3466 122.855 39.5545 120.518 36.0144 117.552C32.1764 114.335 27.8207 110.689 27.8207 103.417C27.8207 96.152 32.1764 92.5063 36.0144 89.2896C39.5545 86.3295 42.3466 83.99 42.3466 79.0998C42.3466 74.2032 39.5545 71.8637 36.0144 68.9004C32.1764 65.6803 27.8207 62.0346 27.8207 54.7595C27.8207 47.4844 32.173 43.8322 36.0144 40.6121C39.5511 37.6488 42.3466 35.3028 42.3466 30.4029C42.3466 25.503 39.5511 23.1603 36.0144 20.1969C32.173 16.9737 27.8207 13.3247 27.8207 6.04633C27.8207 4.60365 29.0391 3.43066 30.5451 3.43066C32.0478 3.43066 33.2662 4.60365 33.2662 6.04633C33.2662 10.9495 36.0617 13.2922 39.5985 16.2556C43.4398 19.4756 47.7921 23.1245 47.7921 30.4029C47.7921 37.678 43.4398 41.3302 39.5951 44.5503C36.0617 47.5169 33.2662 49.8596 33.2662 54.7595C33.2662 59.6562 36.0617 61.9989 39.5951 64.959C43.4398 68.179 47.7921 71.8247 47.7921 79.0998C47.7921 86.3685 43.4364 90.0142 39.5951 93.2309C36.0617 96.191 33.2662 98.5305 33.2662 103.417C33.2662 108.314 36.0617 110.65 39.5951 113.614C43.4364 116.83 47.7921 120.479 47.7921 127.751C47.7921 135.02 43.4364 138.669 39.5951 141.886C36.0617 144.846 33.2662 147.185 33.2662 152.075C33.2662 153.518 32.0478 154.691 30.5451 154.691C29.0391 154.691 27.8207 153.518 27.8207 152.075Z" fill="#F64B4B"/>
</g>
<path fill-rule="evenodd" clip-rule="evenodd" d="M0 149.388C0 142.08 4.30653 138.416 8.10109 135.183C11.5978 132.208 14.3618 129.86 14.3618 124.942C14.3618 120.021 11.5978 117.67 8.10109 114.692C4.30653 111.459 0 107.795 0 100.487C0 93.1818 4.30653 89.5212 8.10109 86.285C11.5978 83.3134 14.3618 80.9622 14.3618 76.0476C14.3618 71.1264 11.5978 68.772 8.10109 65.7938C4.30653 62.561 0 58.8938 0 51.5855C0 44.2708 4.30318 40.6036 8.09775 37.3674C11.5978 34.386 14.3618 32.0316 14.3618 27.1071C14.3618 22.1795 11.5978 19.8283 8.10109 16.8469C4.30318 13.6107 0 9.94027 0 2.62875C0 1.17559 1.20462 0 2.69033 0C4.17938 0 5.384 1.17559 5.384 2.62875C5.384 7.55316 8.14794 9.90761 11.6447 12.889C15.4426 16.1252 19.7424 19.7924 19.7424 27.1071C19.7424 34.4187 15.4426 38.0891 11.6413 41.3253C8.14794 44.3067 5.384 46.6611 5.384 51.5855C5.384 56.5067 8.14794 58.8579 11.6413 61.836C15.4426 65.0689 19.7424 68.7361 19.7424 76.0476C19.7424 83.3526 15.4393 87.0132 11.6413 90.2494C8.1446 93.2243 5.384 95.5722 5.384 100.487C5.384 105.405 8.1446 107.756 11.6413 110.734C15.4393 113.967 19.7424 117.634 19.7424 124.942C19.7424 132.247 15.4393 135.915 11.6413 139.144C8.1446 142.119 5.384 144.47 5.384 149.388C5.384 150.838 4.17938 152.017 2.69033 152.017C1.20462 152.017 0 150.838 0 149.388Z" fill="#F64B4B"/>
</svg>
